<svg xmlns="http://www.w3.org/2000/svg" xml:space="preserve" width="280" height="190"><path d="M293.9103 212.7748c-6.0251 0-10.9262-4.9046-10.9262-10.9299 0-6.0252 4.901-10.9262 10.9262-10.9262 6.0254 0 10.9263 4.901 10.9263 10.9262 0 6.0253-4.9009 10.9299-10.9263 10.9299m-120.7742 0c-6.0254 0-10.9263-4.9046-10.9263-10.9299 0-6.0252 4.901-10.9262 10.9263-10.9262 6.0252 0 10.9263 4.901 10.9263 10.9262 0 6.0253-4.9011 10.9299-10.9263 10.9299m124.693-65.8202 21.8384-37.8218c1.2519-2.1739.507-4.9507-1.6633-6.206-2.1703-1.252-4.9507-.5072-6.206 1.6632l-22.1115 38.3005c-16.909-7.7169-35.8996-12.015-56.1636-12.015-20.2638 0-39.2544 4.2982-56.1634 12.015L155.2483 104.59c-1.2554-2.1704-4.0357-2.9151-6.2061-1.6633-2.1704 1.2554-2.9186 4.0322-1.6632 6.2061l21.8382 37.8218c-37.499 20.395-63.146 58.3587-66.898 103.2093h262.408c-3.7554-44.8506-29.4025-82.8143-66.898-103.2093" style="fill:#3ddb85" transform="translate(-93.1096 -60.0948)"/></svg>
