<svg xmlns="http://www.w3.org/2000/svg" xmlns:xlink="http://www.w3.org/1999/xlink" id="svg3832" version="1.1" viewBox="0 0 48 48"><defs id="defs3834"><linearGradient xlink:href="#linearGradient3308-4-6-931-761-0" id="linearGradient2975" x1="24.3125" x2="24.3125" y1="22.9688" y2="41.0313" gradientUnits="userSpaceOnUse"/><linearGradient id="linearGradient3308-4-6-931-761-0"><stop id="stop2919-2" offset="0" style="stop-color:#fff;stop-opacity:1"/><stop id="stop2921-76" offset="1" style="stop-color:#fff;stop-opacity:0"/></linearGradient><linearGradient xlink:href="#linearGradient4222" id="linearGradient2979" x1="7.6485" x2="41.8617" y1="26.437" y2="26.437" gradientTransform="matrix(0 .3705 -.36175 0 33.5083 6.167)" gradientUnits="userSpaceOnUse"/><linearGradient id="linearGradient4222"><stop id="stop4224" offset="0" style="stop-color:#fff;stop-opacity:1"/><stop id="stop4226" offset="1" style="stop-color:#fff;stop-opacity:0"/></linearGradient><linearGradient xlink:href="#linearGradient3308-4-6-931-761" id="linearGradient2982" x1="24" x2="24" y1="5" y2="43" gradientTransform="translate(0 1)" gradientUnits="userSpaceOnUse"/><linearGradient id="linearGradient3308-4-6-931-761"><stop id="stop2919" offset="0" style="stop-color:#fff;stop-opacity:1"/><stop id="stop2921" offset="1" style="stop-color:#fff;stop-opacity:0"/></linearGradient><linearGradient id="linearGradient3575"><stop id="stop3577" offset="0" style="stop-color:#fafafa;stop-opacity:1"/><stop id="stop3579" offset="1" style="stop-color:#e6e6e6;stop-opacity:1"/></linearGradient><linearGradient id="linearGradient3993"><stop id="stop3995" offset="0" style="stop-color:#a3c0d0;stop-opacity:1"/><stop id="stop4001" offset="1" style="stop-color:#427da1;stop-opacity:1"/></linearGradient><linearGradient xlink:href="#linearGradient2508" id="linearGradient2992" x1="14.0487" x2="14.0487" y1="44.1373" y2="4" gradientTransform="translate(0 .9674)" gradientUnits="userSpaceOnUse"/><linearGradient id="linearGradient2508"><stop id="stop2510" offset="0" style="stop-color:#2e4a5a;stop-opacity:1"/><stop id="stop2512" offset="1" style="stop-color:#6e8796;stop-opacity:1"/></linearGradient><linearGradient id="linearGradient3688-166-749"><stop id="stop2883" offset="0" style="stop-color:#181818;stop-opacity:1"/><stop id="stop2885" offset="1" style="stop-color:#181818;stop-opacity:0"/></linearGradient><linearGradient id="linearGradient3688-464-309"><stop id="stop2889" offset="0" style="stop-color:#181818;stop-opacity:1"/><stop id="stop2891" offset="1" style="stop-color:#181818;stop-opacity:0"/></linearGradient><linearGradient xlink:href="#linearGradient3702-501-757" id="linearGradient2877-634-617" x1="25.0581" x2="25.0581" y1="47.0277" y2="39.9994" gradientUnits="userSpaceOnUse"/><linearGradient id="linearGradient3702-501-757"><stop id="stop2895" offset="0" style="stop-color:#181818;stop-opacity:0"/><stop id="stop2897" offset=".5" style="stop-color:#181818;stop-opacity:1"/><stop id="stop2899" offset="1" style="stop-color:#181818;stop-opacity:0"/></linearGradient><radialGradient xlink:href="#linearGradient3575" id="radialGradient2985" cx="48.4238" cy="-48.0275" r="38.2129" fx="48.4238" fy="-48.0275" gradientTransform="matrix(0 1.0262 -1.65611 .00094 -56.0975 -45.3323)" gradientUnits="userSpaceOnUse"/><radialGradient xlink:href="#linearGradient3993" id="radialGradient2990" cx="9.3331" cy="8.4498" r="20" fx="9.3331" fy="8.4498" gradientTransform="matrix(0 2.04788 -2.74105 0 47.1614 -8.8374)" gradientUnits="userSpaceOnUse"/><radialGradient xlink:href="#linearGradient3688-166-749" id="radialGradient2873-966-168" cx="4.993" cy="43.5" r="2.5" fx="4.993" fy="43.5" gradientTransform="matrix(2.00378 0 0 1.4 27.9881 -17.4)" gradientUnits="userSpaceOnUse"/><radialGradient xlink:href="#linearGradient3688-464-309" id="radialGradient2875-742-326" cx="4.993" cy="43.5" r="2.5" fx="4.993" fy="43.5" gradientTransform="matrix(2.00378 0 0 1.4 -20.0119 -104.4)" gradientUnits="userSpaceOnUse"/></defs><g id="layer1"><g id="g2036" style="display:inline" transform="matrix(1.1 0 0 .44444 -2.4 25.111)"><g id="g3712" style="opacity:.4" transform="matrix(1.05263 0 0 1.28571 -1.2632 -13.4285)"><path id="rect2801" d="M38 40h5v7h-5z" style="fill:url(#radialGradient2873-966-168);fill-opacity:1;stroke:none"/><path id="rect3696" d="M-10-47h5v7h-5z" style="fill:url(#radialGradient2875-742-326);fill-opacity:1;stroke:none" transform="scale(-1)"/><path id="rect3700" d="M10 40h28v7H10z" style="fill:url(#linearGradient2877-634-617);fill-opacity:1;stroke:none"/></g></g><rect id="rect5505" width="39" height="39" x="4.5" y="5.4674" rx="2.2322" ry="2.2322" style="fill:url(#radialGradient2990);fill-opacity:1;stroke:url(#linearGradient2992);stroke-width:1;stroke-linecap:round;stroke-linejoin:round;stroke-miterlimit:4;stroke-opacity:1;stroke-dasharray:none;stroke-dashoffset:0"/><path id="path4294-1" d="M21 6.9687A2.0165 2.0165 0 0 0 18.9687 9v3.9688h-1.1562a2.0165 2.0165 0 0 0-1.5 3.375l5.0625 5.75c-.0631.1107-.1787.246-.2188.3437-.1958.4783-.25.8365-.25 1.2188v.125l-.0937-.0938c-.2782-.2782-.5993-.5248-1.0938-.7188-.2472-.097-.5332-.177-.9687-.1562-.4355.0208-1.054.2103-1.4688.625L15.75 24.9688c-.4147.4146-.6042 1.0332-.625 1.4687-.0208.4355.0592.7215.1563.9688.194.4944.4405.8155.7187 1.0937l.0938.0938h-.125c-.3823 0-.7405.054-1.2188.25-.2391.0979-.5383.215-.8438.5312-.3054.3163-.625.9148-.625 1.5313v2.1874c0 .6165.3196 1.215.625 1.5313.3055.3163.6047.4333.8438.5313.4783.1958.8365.25 1.2188.25h.125L16 35.5c-.2782.2782-.5248.5993-.7188 1.0938-.097.2472-.177.5332-.1562.9687.0208.4355.2103 1.054.625 1.4688l1.5313 1.5312c.4146.4147 1.0332.6042 1.4687.625.4355.0208.7215-.0593.9688-.1563.4944-.194.8155-.4405 1.0937-.7187l.0938-.0938v.125c0 .3823.054.7405.25 1.2188.0979.2391.215.5383.5312.8438.3163.3054.9148.625 1.5313.625h2.1874c.6165 0 1.215-.3196 1.5313-.625.3163-.3055.4333-.6047.5313-.8438.1958-.4783.25-.8365.25-1.2188v-.125l.0937.0938c.2782.2782.5993.5248 1.0938.7188.2472.097.5332.177.9687.1562.4355-.0208 1.054-.2103 1.4688-.625l1.5312-1.5313c.4147-.4146.6042-1.0332.625-1.4687.0208-.4355-.0593-.7215-.1563-.9688-.194-.4944-.4405-.8155-.7187-1.0937l-.0938-.0938h.125c.3823 0 .7405-.054 1.2188-.25.2391-.0979.5383-.215.8438-.5312.3054-.3163.625-.9148.625-1.5313v-2.1874c0-.6165-.3196-1.215-.625-1.5313-.3055-.3163-.6047-.4333-.8438-.5313-.4783-.1958-.8365-.25-1.2188-.25h-.125l.0938-.0937c.2782-.2782.5248-.5993.7188-1.0938.097-.2472.177-.5332.1562-.9687-.0207-.4355-.2103-1.054-.625-1.4688l-1.5313-1.5312c-.4146-.4147-1.0332-.6042-1.4687-.625-.4355-.0208-.7215.0592-.9688.1563-.4944.194-.8155.4405-1.0937.7187l-.0938.0938v-.125c0-.3823-.054-.7405-.25-1.2188-.091-.2225-.228-.5002-.5-.7813l4.7188-5.3124a2.0165 2.0165 0 0 0-1.5-3.375h-1.1563V9A2.0165 2.0165 0 0 0 27 6.9687h-6zM24.3125 31.25c.4271 0 .75.3229.75.75s-.3229.75-.75.75c-.427 0-.75-.323-.75-.75s.323-.75.75-.75z" style="opacity:.05;fill:#000;fill-opacity:1;fill-rule:nonzero;stroke:none;stroke-width:1.00178742;marker:none;visibility:visible;display:inline;overflow:visible;enable-background:accumulate"/><path id="path4294" d="M20.9063 8.0312a.9639.9639 0 0 0-.875.9688v5.0312h-2.2188a.9639.9639 0 0 0-.7188 1.5938l5.7813 6.5313c-.1588.0615-.3418.095-.4375.1874-.1692.1634-.253.3235-.3125.4688-.119.2907-.1563.5667-.1563.8438v1.6562c-.2505.0898-.4828.1973-.7187.3125l-1.1875-1.1875c-.1997-.1996-.4214-.3521-.7188-.4688-.1486-.0583-.3296-.1048-.5624-.0937-.2329.0111-.5359.0983-.75.3125L16.5 25.7188c-.2142.2141-.3014.5171-.3125.75-.0111.2328.0354.4138.0938.5624.1166.2974.269.5191.4687.7188l1.1875 1.1875c-.1152.2359-.2227.4682-.3125.7188h-1.6563c-.277 0-.553.0371-.8437.1562-.1453.0595-.3054.1433-.4688.3125-.1633.1692-.3125.464-.3125.7813v2.1874c0 .3173.1492.6121.3125.7813.1634.1692.3235.253.4688.3125.2907.119.5667.1563.8438.1563h1.6562c.0898.2505.1973.4828.3125.7187L16.75 36.25c-.1996.1996-.3521.4214-.4688.7188-.0583.1486-.1048.3296-.0937.5624.0111.2329.0983.5359.3125.75l1.5313 1.5313c.2141.2142.5171.3014.75.3125.2328.0111.4138-.0354.5624-.0938.2974-.1166.5191-.269.7188-.4687L21.25 38.375c.2359.1152.4682.2227.7188.3125v1.6563c0 .277.0371.553.1562.8437.0595.1453.1433.3054.3125.4688.1692.1633.464.3124.7813.3124h2.1874c.3173 0 .6121-.149.7813-.3124.1692-.1634.253-.3235.3125-.4688.119-.2907.1563-.5667.1563-.8438v-1.6562c.2505-.0898.4828-.1973.7187-.3125l1.1875 1.1875c.1996.1996.4214.3521.7188.4688.1486.0583.3296.1048.5624.0937.2329-.0111.5359-.0983.75-.3125l1.5313-1.5313c.2142-.2141.3014-.5171.3125-.75.0111-.2328-.0354-.4138-.0938-.5624-.1166-.2974-.269-.5191-.4687-.7188l-1.1875-1.1875c.1152-.2359.2227-.4682.3125-.7188h1.6563c.277 0 .553-.0371.8437-.1562.1453-.0595.3054-.1433.4688-.3125.1633-.1692.3124-.464.3124-.7813v-2.1874c0-.3173-.149-.6121-.3124-.7813-.1634-.1692-.3235-.253-.4688-.3125-.2907-.119-.5667-.1563-.8438-.1563H31c-.0898-.2505-.1973-.4828-.3125-.7187L31.875 27.75c.1996-.1996.3521-.4214.4688-.7188.0583-.1486.1048-.3296.0937-.5624-.0111-.2329-.0983-.5359-.3125-.75l-1.5313-1.5313c-.2141-.2142-.5171-.3014-.75-.3125-.2328-.0111-.4138.0354-.5624.0938-.2974.1166-.5191.269-.7188.4687L27.375 25.625c-.2359-.1152-.4682-.2227-.7188-.3125v-1.6563c0-.277-.0371-.553-.1562-.8437-.0595-.1453-.1433-.3054-.3125-.4688-.1692-.1633-.464-.3124-.7813-.3124H25.25l5.6563-6.4063a.9639.9639 0 0 0-.7188-1.5938h-2.2188V9A.9639.9639 0 0 0 27 8.0312h-6a.9639.9639 0 0 0-.0938 0zm3.4062 22.1563c1.0021 0 1.8125.8104 1.8125 1.8125s-.8104 1.8125-1.8125 1.8125S22.5 33.0021 22.5 32s.8104-1.8125 1.8125-1.8125z" style="opacity:.05;fill:#000;fill-opacity:1;fill-rule:nonzero;stroke:none;stroke-width:1.00178742;marker:none;visibility:visible;display:inline;overflow:visible;enable-background:accumulate"/><path id="path2317" d="M21 9v6h-3.1875L24 22l6.1875-7H27V9h-6zm2.2188 14c-.173 0-.2813.295-.2813.6563v2.2812c-.696.1585-1.3515.4424-1.9375.8125l-1.625-1.625c-.2555-.2555-.534-.3723-.6563-.25l-1.5312 1.5313c-.1223.1222-.0055.4007.25.6562l1.625 1.625c-.3701.586-.654 1.2414-.8125 1.9375h-2.2813c-.3613 0-.6562.1084-.6562.2813v2.1874c0 .173.295.2813.6563.2813H18.25c.1585.696.4424 1.3515.8125 1.9375l-1.625 1.625c-.2555.2555-.3723.534-.25.6563l1.5313 1.5312c.1222.1223.4007.0055.6562-.25L21 37.25c.586.3701 1.2414.654 1.9375.8125v2.2813c0 .3613.1084.6562.2813.6562h2.1874c.173 0 .2813-.295.2813-.6563v-2.2812c.696-.1585 1.3515-.4424 1.9375-.8125l1.625 1.625c.2555.2555.534.3723.6563.25l1.5312-1.5313c.1223-.1222.0055-.4007-.25-.6562l-1.625-1.625c.3701-.586.654-1.2414.8125-1.9375h2.2813c.3613 0 .6562-.1084.6562-.2813v-2.1874c0-.173-.295-.2813-.6563-.2813H30.375c-.1585-.696-.4424-1.3515-.8125-1.9375l1.625-1.625c.2555-.2555.3723-.534.25-.6563l-1.5313-1.5312c-.1222-.1223-.4007-.0055-.6562.25l-1.625 1.625c-.586-.3701-1.2414-.654-1.9375-.8125v-2.2813c0-.3613-.1084-.6562-.2813-.6562h-2.1874zm1.0937 6.2188c1.5286 0 2.7813 1.2526 2.7813 2.7812 0 1.5286-1.2527 2.7813-2.7813 2.7813S21.5312 33.5286 21.5312 32s1.2527-2.7813 2.7813-2.7813z" style="fill:url(#radialGradient2985);fill-opacity:1;fill-rule:nonzero;stroke:none;stroke-width:1.00178742;marker:none;visibility:visible;display:inline;overflow:visible;enable-background:accumulate"/><rect id="rect6741" width="37" height="37" x="5.5" y="6.5" rx="1.3652" ry="1.3652" style="opacity:.4;fill:none;stroke:url(#linearGradient2982);stroke-width:.99999976;stroke-linecap:round;stroke-linejoin:round;stroke-miterlimit:4;stroke-opacity:1;stroke-dasharray:none;stroke-dashoffset:0"/><path id="path2777" d="M28.9264 15.4667 24 21.1776 18.963 15.5H21.5v-6h5v6l2.4264-.0333z" style="fill:none;stroke:url(#linearGradient2979);stroke-width:.99829447;stroke-linecap:butt;stroke-linejoin:miter;stroke-miterlimit:4;stroke-opacity:1;stroke-dasharray:none;stroke-dashoffset:0;marker:none;visibility:visible;display:inline;overflow:visible"/><path id="path4243" d="M23.4375 23.4688c-.0117.0538-.0313.1002-.0313.1874v2.2813a.4819.4819 0 0 1-.375.4688c-.6384.1453-1.2384.407-1.7812.75a.4819.4819 0 0 1-.5938-.0626l-1.625-1.625c-.0533-.0533-.0835-.0663-.125-.0937l-1.2187 1.2188c.0274.0414.0404.0716.0938.125l1.625 1.625a.4819.4819 0 0 1 .0624.5937c-.3428.5428-.6046 1.1428-.75 1.7813a.4819.4819 0 0 1-.4687.375h-2.2813c-.0872 0-.1336.0195-.1875.0312v1.75c.0539.0117.1003.0313.1875.0313H18.25a.4819.4819 0 0 1 .4688.375c.1453.6384.407 1.2384.75 1.7812a.4819.4819 0 0 1-.0626.5938l-1.625 1.625c-.0533.0533-.0663.0835-.0937.125l1.2188 1.2187c.0414-.0274.0716-.0404.125-.0938l1.625-1.625a.4819.4819 0 0 1 .5937-.0624c.5428.3428 1.1428.6046 1.7813.75a.4819.4819 0 0 1 .375.4687v2.2813c0 .0872.0195.1336.0312.1874h1.75c.0117-.0537.0313-.1002.0313-.1874v-2.2813a.4819.4819 0 0 1 .375-.4688c.6384-.1453 1.2384-.407 1.7812-.75a.4819.4819 0 0 1 .5938.0626l1.625 1.625c.0533.0533.0835.0663.125.0937l1.2187-1.2188c-.0274-.0414-.0404-.0716-.0938-.125l-1.625-1.625a.4819.4819 0 0 1-.0624-.5937c.3428-.5428.6046-1.1428.75-1.7813a.4819.4819 0 0 1 .4687-.375h2.2813c.0872 0 .1336-.0195.1874-.0312v-1.75c-.0537-.0117-.1002-.0313-.1874-.0313H30.375a.4819.4819 0 0 1-.4688-.375c-.1453-.6384-.407-1.2384-.75-1.7812a.4819.4819 0 0 1 .0626-.5938l1.625-1.625c.0533-.0533.0663-.0835.0937-.125l-1.2188-1.2187c-.0414.0274-.0716.0404-.125.0938l-1.625 1.625a.4819.4819 0 0 1-.5937.0624c-.5428-.3428-1.1428-.6046-1.7813-.75a.4819.4819 0 0 1-.375-.4687v-2.2813c0-.0872-.0195-.1336-.0312-.1874h-1.75zm.875 5.2812c1.7918 0 3.25 1.4582 3.25 3.25s-1.4582 3.25-3.25 3.25-3.25-1.4582-3.25-3.25 1.4582-3.25 3.25-3.25z" style="fill:none;stroke:url(#linearGradient2975);stroke-width:1;stroke-opacity:1;marker:none;visibility:visible;display:inline;overflow:visible;enable-background:accumulate"/></g></svg>