<svg xmlns="http://www.w3.org/2000/svg" xmlns:xlink="http://www.w3.org/1999/xlink" viewBox="0 0 4.23333 4.23333"><defs><linearGradient id="a"><stop offset="0" style="stop-color:#2185d0;stop-opacity:0"/><stop offset=".49517" style="stop-color:#2185d0;stop-opacity:.48923996"/><stop offset="1" style="stop-color:#2185d0;stop-opacity:.63279623"/></linearGradient><linearGradient xlink:href="#b" id="c" x1="42519.285" x2="42575.336" y1="-7078.7891" y2="-6966.9307" gradientUnits="userSpaceOnUse"/><linearGradient id="b"><stop offset="0" style="stop-color:#2185d0;stop-opacity:0"/><stop offset=".49517" style="stop-color:#2185d0;stop-opacity:.30000001"/><stop offset="1" style="stop-color:#2185d0;stop-opacity:.30000001"/></linearGradient></defs><path d="M42519.285-7078.7891a.76087.56792 0 0 0-.738.6739l33.586 125.8886a87.18236 87.18236 0 0 0 39.381-33.7636l-71.565-92.5196a.76087.56792 0 0 0-.664-.2793z" style="font-variation-settings:normal;opacity:1;vector-effect:none;fill:url(#c);fill-opacity:1;stroke:none;stroke-width:3.67846;stroke-linecap:butt;stroke-linejoin:miter;stroke-miterlimit:2;stroke-dasharray:none;stroke-dashoffset:0;stroke-opacity:1;paint-order:stroke markers fill;stop-color:#000;stop-opacity:1" transform="matrix(.024279 0 0 .024279 -1030.15636 172.97084)"/><path d="M11249.461-1883.6961c-12.74 0-23.067 10.3275-23.067 23.0671 0 4.3335 1.22 8.5795 3.522 12.2514l19.232-24.8636c.138-.1796.486-.1796.624 0l19.233 24.8646a23.06796 23.06796 0 0 0 3.523-12.2524c0-12.7396-10.327-23.0671-23.067-23.0671z" style="opacity:1;fill:#2185d0;fill-opacity:1;stroke-width:17.0055;paint-order:markers fill stroke;stop-color:#000" transform="matrix(.091762 0 0 .091762 -1030.15636 172.97084)"/></svg>