<?xml version="1.0" encoding="UTF-8"?>
<svg width="700" height="150" version="1.1" viewBox="0 384 700 150" xmlns="http://www.w3.org/2000/svg"><defs><clipPath id="clipPath20"><path d="m0 576h576v-576h-576z"/></clipPath></defs><g transform="matrix(1.3333 0 0 -1.3333 0 768)"><g transform="translate(-99.514 86.593)" stroke-width=".99975"><g clip-path="url(#clipPath20)" stroke-width=".99975"><g transform="translate(82.833)" stroke-width=".99975"><g transform="translate(177.28 151.01)"><path d="m0 0h-30.267c-0.781 0-1.415-0.634-1.415-1.415v-14.798c0-0.781 0.634-1.417 1.415-1.417h11.807v-18.385s-2.651-0.904-9.981-0.904c-8.647 0-20.727 3.16-20.727 29.724 0 26.569 12.579 30.064 24.388 30.064 10.222 0 14.626-1.799 17.428-2.667 0.881-0.269 1.695 0.608 1.695 1.389l3.377 14.298c0 0.366-0.124 0.805-0.54 1.104-1.138 0.813-8.081 4.697-25.621 4.697-20.205 0-40.932-8.596-40.932-49.921 0-41.327 23.73-47.485 43.727-47.485 16.557 0 26.601 7.075 26.601 7.075 0.414 0.229 0.459 0.808 0.459 1.073v46.153c0 0.781-0.633 1.415-1.414 1.415" fill="#fff"/></g><g transform="translate(333.26 187.75)"><path d="m0 0c0 0.788-0.624 1.423-1.405 1.423h-17.042c-0.779 0-1.411-0.635-1.411-1.423 0-3e-3 4e-3 -32.934 4e-3 -32.934h-26.564v32.934c0 0.788-0.627 1.423-1.407 1.423h-17.041c-0.775 0-1.407-0.635-1.407-1.423v-89.177c0-0.787 0.632-1.427 1.407-1.427h17.041c0.78 0 1.407 0.64 1.407 1.427v38.145h26.564s-0.046-38.142-0.046-38.145c0-0.787 0.631-1.427 1.412-1.427h17.082c0.78 0 1.404 0.64 1.406 1.427z" fill="#fff"/></g><g transform="translate(209.44 176.05)"><path d="m0 0c0 6.136-4.92 11.095-10.99 11.095-6.064 0-10.987-4.959-10.987-11.095 0-6.131 4.923-11.104 10.987-11.104 6.07 0 10.99 4.973 10.99 11.104" fill="#fff"/></g><g transform="translate(208.22 117.39)"><path d="m0 0v41.164c0 0.782-0.63 1.421-1.41 1.421h-16.988c-0.78 0-1.477-0.804-1.477-1.585v-58.977c0-1.733 1.08-2.249 2.478-2.249h15.306c1.679 0 2.091 0.826 2.091 2.277z" fill="#fff"/></g><g transform="translate(398.03 159.84)"><path d="m0 0h-16.911c-0.776 0-1.407-0.64-1.407-1.427v-43.725s-4.297-3.144-10.395-3.144-7.716 2.767-7.716 8.737v38.132c0 0.787-0.63 1.427-1.406 1.427h-17.164c-0.774 0-1.409-0.64-1.409-1.427v-41.018c0-17.736 9.884-22.075 23.481-22.075 11.156 0 20.15 6.164 20.15 6.164s0.427-3.248 0.622-3.633c0.193-0.384 0.698-0.773 1.244-0.773l10.919 0.049c0.774 0 1.409 0.64 1.409 1.424l-6e-3 59.862c0 0.787-0.632 1.427-1.411 1.427" fill="#fff"/></g><g transform="translate(437.58 111.59)"><path d="m0 0c-5.866 0.179-9.845 2.841-9.845 2.841v28.24s3.925 2.406 8.741 2.836c6.09 0.546 11.958-1.294 11.958-15.821 0-15.32-2.648-18.343-10.854-18.096m6.67 50.245c-9.605 0-16.138-4.285-16.138-4.285v30.196c0 0.788-0.63 1.423-1.406 1.423h-17.091c-0.777 0-1.408-0.635-1.408-1.423v-89.177c0-0.787 0.631-1.426 1.41-1.426h11.858c0.534 0 0.938 0.275 1.237 0.757 0.295 0.479 0.72 4.112 0.72 4.112s6.988-6.623 20.217-6.623c15.532 0 24.439 7.878 24.439 35.366s-14.226 31.08-23.838 31.08" fill="#fff"/></g><g transform="translate(257.2 159.98)"><path d="m0 0h-12.784s-0.019 16.885-0.019 16.889c0 0.639-0.329 0.959-1.069 0.959h-17.42c-0.677 0-1.041-0.298-1.041-0.95v-17.452s-8.73-2.107-9.32-2.277c-0.588-0.171-1.021-0.713-1.021-1.359v-10.967c0-0.789 0.63-1.426 1.409-1.426h8.932v-26.384c0-19.596 13.746-21.521 23.021-21.521 4.239 0 9.309 1.361 10.146 1.67 0.506 0.186 0.801 0.711 0.801 1.279l0.014 12.064c0 0.787-0.665 1.424-1.413 1.424-0.745 0-2.651-0.303-4.613-0.303-6.279 0-8.407 2.919-8.407 6.699 0 3.776-1e-3 25.072-1e-3 25.072h12.785c0.779 0 1.411 0.637 1.411 1.426v13.736c0 0.787-0.632 1.421-1.411 1.421" fill="#fff"/></g></g></g></g></g></svg>
