<svg xmlns="http://www.w3.org/2000/svg" xml:space="preserve" viewBox="0 2 37 37"><path fill="#eceff1" d="m30.1577 23.7307-6-7.3-1.7-4.1-8.3.3.1 2.3-1.6 3-2.5 4.9-.5 4.1 1.8 5.8 4.1 2.3h6.2l5.8-4.4z"/><path fill="#263238" d="M28.3577 18.3307c-1.6-2.3-2.9-3.7-3.6-6.6s.2-2.1-.4-4.6c-.3-1.3-.8-2.2-1.3-2.9-.6-.7-1.3-1.1-1.7-1.2-.9-.5-3-1.3-5.6.1-2.7 1.4-2.4 4.4-1.9 10.5 0 .4-.1.9-.3 1.3-.4.9-1.1 1.7-1.7 2.4-.7 1-1.4 2-1.9 3.1-1.2 2.3-2.3 5.2-2 6.3.5-.1 6.8 9.5 6.8 9.7.4-.1 2.1-.1 3.6-.1 2.1-.1 3.3-.2 5 .2 0-.3-.1-.6-.1-.9 0-.6.1-1.1.2-1.8.1-.5.2-1 .3-1.6-1 .9-2.8 1.9-4.5 2.2-1.5.3-4-.2-5.2-1.7.1 0 .3 0 .4-.1.3-.1.6-.2.7-.4.3-.5.1-1-.1-1.3s-1.7-1.4-2.4-2-1.1-.9-1.5-1.3l-.8-.8c-.2-.2-.3-.4-.4-.5-.2-.5-.3-1.1-.2-1.9.1-1.1.5-2 1-3 .2-.4.7-1.2.7-1.2s-1.7 4.2-.8 5.5c0 0 .1-1.3.5-2.6.3-.9.8-2.2 1.4-2.9s2.1-3.3 2.2-4.9c0-.7.1-1.4.1-1.9-.4-.4 6.6-1.4 7-.3.1.4 1.5 4 2.3 5.9.4.9.9 1.7 1.2 2.7.3 1.1.5 2.6.5 4.1 0 .3 0 .8-.1 1.3.2 0 4.1-4.2-.5-7.7 0 0 2.8 1.3 2.9 3.9.1 2.1-.8 3.8-1 4.1.1 0 2.1.9 2.2.9.4 0 1.2-.3 1.2-.3.1-.3.4-1.1.4-1.4.7-2.3-1-6-2.6-8.3z"/><g fill="#eceff1" transform="translate(-5.9423 -5.5693)"><ellipse cx="21.6" cy="15.3" rx="1.3" ry="2"/><ellipse cx="26.1" cy="15.2" rx="1.7" ry="2.3"/></g><g fill="#212121" transform="translate(-5.9423 -5.5693)"><ellipse cx="21.7" cy="15.5" rx="1.2" ry=".7" transform="rotate(-97.204 21.67679 15.54244)"/><ellipse cx="26" cy="15.6" rx="1" ry="1.3"/></g><g fill="#ffc107"><path d="M33.3577 32.0307c-.4-.2-1.1-.5-1.7-1.4-.3-.5-.2-1.9-.7-2.5-.3-.4-.7-.2-.8-.2-.9.2-3 1.6-4.4 0-.2-.2-.5-.5-1-.5s-.7.2-.9.6-.2.7-.2 1.7c0 .8 0 1.7-.1 2.4-.2 1.7-.5 2.7-.5 3.7 0 1.1.3 1.8.7 2.1.3.3.8.5 1.9.5s1.8-.4 2.5-1.1c.5-.5.9-.7 2.3-1.7 1.1-.7 2.8-1.6 3.1-1.9.2-.2.5-.3.5-.9 0-.5-.4-.7-.7-.8zM13.2577 32.3307c-1-1.6-1.1-1.9-1.8-2.9-.6-1-1.9-2.9-2.7-2.9-.6 0-.9.3-1.3.7s-.8 1.3-1.5 1.8c-.6.5-2.3.4-2.7 1s.4 1.5.4 3c0 .6-.5 1-.6 1.4-.1.5-.2.8 0 1.2.4.6.9.8 4.3 1.5 1.8.4 3.5 1.4 4.6 1.5s3 0 3-2.7c.1-1.6-.8-2-1.7-3.6zM15.1577 14.2307c-.6-.4-1.1-.8-1.1-1.4s.4-.8 1-1.3c.1-.1 1.2-1.1 2.3-1.1s2.4.7 2.9.9c.9.2 1.8.4 1.7 1.1-.1 1-.2 1.2-1.2 1.7-.7.2-2 1.3-2.9 1.3-.4 0-1 0-1.4-.1-.3-.1-.8-.6-1.3-1.1z"/></g><g fill="#634703"><path d="M14.9577 13.4307c.2.2.5.4.8.5.2.1.5.2.5.2h.9c.5 0 1.2-.2 1.9-.6.7-.3.8-.5 1.3-.7.5-.3 1-.6.8-.7s-.4 0-1.1.4c-.6.4-1.1.6-1.7.9-.3.1-.7.3-1 .3h-.9c-.3 0-.5-.1-.8-.2-.2-.1-.3-.2-.4-.2-.2-.1-.6-.5-.8-.6 0 0-.2 0-.1.1l.6.6zM17.9577 11.2307c.1.2.3.2.4.3s.2.1.2.1c.1-.1 0-.3-.1-.3 0-.2-.5-.2-.5-.1zM16.3577 11.4307c0 .1.2.2.2.1.1-.1.2-.2.3-.2.2-.1.1-.2-.2-.2-.2.1-.2.2-.3.3z"/></g><path fill="#455a64" d="M26.0577 29.1307v.3c.2.4.7.5 1.1.5.6 0 1.2-.4 1.5-.8 0-.1.1-.2.2-.3.2-.3.3-.5.4-.6 0 0-.1-.1-.1-.2-.1-.2-.4-.4-.8-.5-.3-.1-.8-.2-1-.2-.9-.1-1.4.2-1.7.5 0 0 .1 0 .1.1.2.2.3.4.3.7.1.2 0 .3 0 .5z"/></svg>