<svg width="313.23mm" height="216.02mm" version="1.1" viewBox="0 0 313.23 216.02" xml:space="preserve" xmlns="http://www.w3.org/2000/svg"><g transform="matrix(.92596 0 0 .92596 -38.479 3.1123)" stroke-width=".020815"><path d="m210.53 221.3s98.125 0 122.46-6.4807c13.704-3.6724 24.011-14.258 27.628-27.327 6.6881-23.979 6.6881-74.42 6.6881-74.42s0-50.117-6.6881-73.88c-3.6173-13.393-13.924-23.763-27.628-27.327-24.339-6.5887-122.46-6.5887-122.46-6.5887s-97.906 0-122.14 6.5887c-13.485 3.5644-24.011 13.933-27.848 27.327-6.4686 23.763-6.4686 73.88-6.4686 73.88s0 50.441 6.4686 74.42c3.8373 13.069 14.362 23.654 27.848 27.327 24.23 6.4807 122.14 6.4807 122.14 6.4807z" fill="#f03"/><path d="m259.3 113.29-81.009-45.905v91.81z" fill="#fff"/></g></svg>
