<?xml version="1.0" encoding="UTF-8"?><svg id="Layer_1" xmlns="http://www.w3.org/2000/svg" viewBox="0 0 170 64"><defs><style>.cls-1{fill:#00bbf1;}.cls-2{fill:#fff;}.cls-3{fill:#ff5f5f;}.cls-4{fill:#333a45;}.cls-5{opacity:.8;}</style></defs><rect class="cls-4" width="170" height="64" rx="8.17" ry="8.17"/><g class="cls-5"><path class="cls-2" d="M71.16,19.07c-.55-.17-.99-.4-1.31-.7-.15-.13-.23-.29-.23-.49,0-.14,.04-.27,.12-.37,.08-.1,.18-.15,.29-.15s.25,.05,.41,.16c.71,.53,1.52,.79,2.44,.79,.64,0,1.13-.12,1.48-.36,.34-.24,.52-.58,.52-1.03,0-.35-.16-.62-.48-.79-.32-.18-.83-.34-1.54-.5-.67-.14-1.22-.31-1.66-.49-.43-.18-.77-.43-1.01-.75-.24-.32-.37-.72-.37-1.21s.13-.92,.4-1.3c.27-.38,.64-.68,1.12-.89,.48-.21,1.03-.32,1.64-.32,.57,0,1.09,.08,1.57,.24,.48,.16,.89,.4,1.22,.71,.16,.14,.24,.3,.24,.49,0,.14-.04,.26-.13,.36-.08,.1-.18,.16-.29,.16-.1,0-.24-.05-.4-.16-.37-.28-.71-.48-1.04-.61-.32-.12-.71-.19-1.17-.19-.62,0-1.1,.13-1.44,.38-.34,.25-.52,.6-.52,1.05,0,.38,.15,.67,.46,.87,.3,.2,.79,.37,1.46,.53,.7,.16,1.27,.33,1.71,.5,.44,.17,.78,.41,1.04,.71,.26,.3,.39,.69,.39,1.16s-.13,.91-.4,1.28c-.27,.37-.64,.66-1.13,.86s-1.04,.31-1.67,.31-1.19-.08-1.73-.25Z"/><path class="cls-2" d="M82.45,13.41c.11,.1,.16,.25,.16,.43v4.88c0,.17-.06,.3-.17,.41s-.26,.16-.44,.16c-.17,0-.3-.05-.41-.15-.1-.1-.16-.23-.16-.4v-.46c-.18,.34-.44,.59-.76,.77-.32,.18-.69,.26-1.09,.26-1.42,0-2.14-.78-2.14-2.35v-3.12c0-.18,.05-.33,.16-.43,.11-.1,.26-.16,.45-.16s.33,.05,.44,.16c.11,.1,.16,.25,.16,.43v3.11c0,.47,.1,.82,.29,1.04,.19,.22,.49,.34,.89,.34,.47,0,.85-.15,1.13-.46,.28-.3,.43-.71,.43-1.21v-2.82c0-.18,.06-.32,.17-.43,.11-.11,.26-.16,.44-.16s.33,.05,.44,.16Z"/><path class="cls-2" d="M88.8,13.61c.4,.26,.7,.62,.92,1.08,.22,.46,.33,1,.33,1.61s-.11,1.13-.32,1.58-.52,.81-.92,1.06c-.4,.25-.85,.37-1.36,.37-.44,0-.83-.09-1.16-.28-.34-.19-.59-.46-.77-.81v2.68c0,.17-.05,.3-.16,.4-.11,.1-.25,.15-.43,.15-.18,0-.33-.05-.45-.16-.12-.1-.17-.24-.17-.42v-7.03c0-.18,.06-.32,.17-.43,.11-.11,.26-.16,.44-.16s.32,.05,.43,.16c.11,.11,.17,.25,.17,.43v.49c.18-.35,.43-.62,.77-.82,.34-.19,.72-.29,1.16-.29,.5,0,.95,.13,1.35,.38Zm-.41,4.21c.29-.36,.43-.86,.43-1.52s-.15-1.18-.44-1.55-.7-.55-1.22-.55-.93,.18-1.22,.54c-.28,.36-.43,.87-.43,1.54s.14,1.18,.43,1.54c.28,.36,.69,.54,1.22,.54s.94-.18,1.22-.53Z"/><path class="cls-2" d="M95.89,13.61c.4,.26,.7,.62,.92,1.08,.22,.46,.33,1,.33,1.61s-.11,1.13-.32,1.58-.52,.81-.92,1.06c-.4,.25-.85,.37-1.36,.37-.44,0-.83-.09-1.16-.28-.34-.19-.59-.46-.77-.81v2.68c0,.17-.05,.3-.16,.4-.11,.1-.25,.15-.43,.15-.18,0-.33-.05-.45-.16-.12-.1-.17-.24-.17-.42v-7.03c0-.18,.06-.32,.17-.43,.11-.11,.26-.16,.44-.16s.32,.05,.43,.16c.11,.11,.17,.25,.17,.43v.49c.18-.35,.43-.62,.77-.82,.34-.19,.72-.29,1.16-.29,.5,0,.95,.13,1.35,.38Zm-.41,4.21c.29-.36,.43-.86,.43-1.52s-.15-1.18-.44-1.55-.7-.55-1.22-.55-.93,.18-1.22,.54c-.28,.36-.43,.87-.43,1.54s.14,1.18,.43,1.54c.28,.36,.69,.54,1.22,.54s.94-.18,1.22-.53Z"/><path class="cls-2" d="M99.52,18.94c-.44-.25-.77-.6-1.01-1.06-.24-.46-.35-.99-.35-1.6s.12-1.15,.35-1.61c.24-.46,.57-.81,1.01-1.06,.44-.25,.94-.37,1.52-.37s1.08,.12,1.52,.37c.44,.25,.77,.6,1.01,1.06,.24,.46,.35,1,.35,1.61s-.12,1.14-.35,1.6c-.24,.46-.57,.81-1.01,1.06-.44,.25-.94,.37-1.52,.37s-1.08-.12-1.52-.37Zm2.75-1.12c.28-.35,.43-.87,.43-1.55s-.14-1.19-.43-1.54c-.29-.36-.7-.53-1.22-.53s-.94,.18-1.22,.53c-.29,.36-.43,.87-.43,1.54s.14,1.2,.43,1.55c.28,.35,.69,.53,1.23,.53s.95-.18,1.23-.53Z"/><path class="cls-2" d="M108.91,13.75c0,.18-.04,.31-.13,.4s-.24,.14-.46,.16l-.36,.04c-.5,.05-.88,.22-1.12,.53-.24,.3-.37,.67-.37,1.1v2.75c0,.19-.06,.34-.17,.43-.11,.1-.26,.14-.43,.14s-.32-.05-.44-.14c-.12-.1-.17-.24-.17-.43v-4.88c0-.18,.06-.33,.17-.43,.12-.1,.26-.15,.44-.15,.16,0,.29,.05,.4,.15,.11,.1,.16,.24,.16,.41v.58c.16-.35,.39-.62,.7-.8,.3-.18,.65-.29,1.03-.32h.17c.38-.04,.58,.13,.58,.48Z"/><path class="cls-2" d="M113.4,18.5c.08,.08,.11,.18,.11,.32,0,.16-.06,.28-.19,.37-.12,.08-.31,.12-.55,.1l-.32-.02c-.65-.05-1.13-.25-1.45-.59-.32-.35-.48-.86-.48-1.54v-2.82h-.72c-.35,0-.53-.16-.53-.47,0-.14,.05-.26,.14-.34,.09-.08,.22-.13,.39-.13h.72v-1.24c0-.18,.05-.33,.16-.43,.11-.1,.25-.16,.44-.16s.33,.05,.44,.16c.11,.1,.17,.25,.17,.43v1.24h1.19c.17,0,.3,.04,.39,.13s.14,.2,.14,.34c0,.15-.05,.27-.14,.35s-.22,.12-.39,.12h-1.19v2.9c0,.38,.08,.65,.23,.83s.39,.28,.71,.3l.34,.02c.18,.02,.3,.06,.38,.14Z"/><path class="cls-2" d="M126.25,15.59v3.12c0,.18-.06,.33-.17,.43-.11,.1-.26,.15-.44,.15s-.32-.05-.43-.15c-.11-.1-.17-.24-.17-.43v-3.11c0-.49-.09-.84-.26-1.06s-.45-.33-.83-.33c-.44,0-.79,.15-1.04,.45-.26,.3-.38,.71-.38,1.23v2.82c0,.18-.06,.33-.17,.43-.11,.1-.26,.15-.44,.15s-.32-.05-.43-.15c-.11-.1-.17-.24-.17-.43v-3.11c0-.49-.09-.84-.26-1.06-.18-.22-.45-.33-.83-.33-.44,0-.79,.15-1.05,.45-.26,.3-.39,.71-.39,1.23v2.82c0,.18-.06,.33-.17,.43s-.26,.15-.43,.15-.32-.05-.44-.15-.17-.24-.17-.43v-4.88c0-.18,.06-.32,.18-.42,.12-.1,.26-.16,.43-.16s.31,.05,.41,.15c.11,.1,.16,.24,.16,.41v.44c.18-.34,.42-.59,.73-.77,.31-.18,.67-.26,1.08-.26,.45,0,.82,.09,1.11,.28,.29,.18,.51,.47,.65,.85,.18-.34,.44-.62,.78-.82,.34-.2,.74-.31,1.18-.31,1.31,0,1.97,.79,1.97,2.36Z"/><path class="cls-2" d="M132.76,17.89c.07,.09,.11,.2,.11,.34,0,.23-.14,.43-.43,.59-.28,.16-.59,.28-.92,.37s-.65,.13-.95,.13c-.93,0-1.66-.27-2.2-.81-.54-.54-.8-1.28-.8-2.21,0-.6,.12-1.13,.35-1.6,.24-.46,.57-.82,1-1.08,.43-.26,.91-.38,1.46-.38,.78,0,1.4,.25,1.86,.76s.68,1.18,.68,2.04c0,.32-.14,.48-.43,.48h-3.71c.08,1.24,.68,1.86,1.79,1.86,.3,0,.55-.04,.77-.12s.44-.18,.68-.31c.02-.02,.09-.05,.2-.1s.2-.08,.27-.08c.11,0,.2,.04,.28,.13Zm-3.48-3.32c-.28,.3-.45,.71-.5,1.25h3.1c-.02-.54-.16-.96-.41-1.25s-.61-.44-1.06-.44-.84,.15-1.12,.44Z"/><path class="cls-2" d="M138.45,18.94c-.44-.25-.77-.6-1.01-1.06-.24-.46-.35-.99-.35-1.6s.12-1.15,.35-1.61c.24-.46,.57-.81,1.01-1.06,.44-.25,.94-.37,1.52-.37s1.08,.12,1.52,.37c.44,.25,.77,.6,1.01,1.06s.35,1,.35,1.61-.12,1.14-.35,1.6-.57,.81-1.01,1.06c-.44,.25-.94,.37-1.52,.37s-1.08-.12-1.52-.37Zm2.75-1.12c.28-.35,.43-.87,.43-1.55s-.14-1.19-.43-1.54c-.29-.36-.7-.53-1.22-.53s-.94,.18-1.22,.53c-.29,.36-.43,.87-.43,1.54s.14,1.2,.43,1.55c.28,.35,.69,.53,1.23,.53s.95-.18,1.23-.53Z"/><path class="cls-2" d="M149.44,15.59v3.12c0,.18-.05,.33-.16,.43-.11,.1-.26,.15-.45,.15s-.33-.05-.44-.16c-.11-.1-.16-.24-.16-.42v-3.06c0-.5-.1-.86-.29-1.09-.2-.23-.5-.35-.92-.35-.49,0-.88,.15-1.18,.46-.3,.3-.44,.71-.44,1.22v2.82c0,.18-.05,.32-.16,.42-.11,.1-.25,.16-.44,.16s-.33-.05-.44-.16-.17-.24-.17-.42v-4.88c0-.17,.06-.31,.17-.41,.12-.11,.26-.16,.44-.16s.32,.05,.42,.16,.16,.24,.16,.41v.49c.19-.35,.46-.62,.8-.8,.34-.18,.73-.28,1.16-.28,1.4,0,2.1,.79,2.1,2.36Z"/></g><g><path class="cls-2" d="M88.61,46.56c.08,.24,.13,.47,.13,.68,0,.56-.21,1.04-.64,1.41-.43,.38-.93,.56-1.49,.56-.27,0-.53-.06-.78-.19-.25-.13-.46-.3-.63-.53l-6.81-8.98-2.98,2.86v4.93c0,.56-.18,1.03-.55,1.38s-.84,.53-1.43,.53-1.03-.18-1.4-.55-.55-.82-.55-1.37V29.15c0-.54,.19-1,.56-1.37s.86-.55,1.44-.55,1.03,.18,1.38,.53c.36,.36,.53,.82,.53,1.38v8.54l10.05-9.89c.48-.48,.99-.72,1.54-.72,.48,0,.89,.2,1.22,.6s.5,.82,.5,1.26-.19,.85-.57,1.22l-6.84,6.53,7,9.26c.12,.17,.23,.37,.31,.61Z"/><path class="cls-2" d="M106.07,45.34c-.75,1.33-1.78,2.36-3.09,3.09-1.31,.73-2.75,1.1-4.32,1.1s-3.04-.37-4.33-1.1c-1.3-.73-2.32-1.76-3.08-3.09s-1.13-2.83-1.13-4.51,.38-3.18,1.13-4.51c.75-1.33,1.78-2.37,3.08-3.11,1.3-.74,2.74-1.11,4.33-1.11s3.01,.37,4.32,1.11c1.31,.74,2.34,1.78,3.09,3.11,.75,1.33,1.13,2.83,1.13,4.51s-.38,3.18-1.13,4.51Zm-3.28-7.25c-.43-.81-1-1.43-1.73-1.87-.72-.44-1.52-.66-2.4-.66s-1.68,.22-2.4,.66c-.72,.44-1.3,1.06-1.73,1.87-.43,.81-.64,1.72-.64,2.75s.21,1.94,.64,2.73c.43,.8,1,1.41,1.73,1.85,.72,.44,1.52,.66,2.4,.66s1.68-.22,2.4-.66c.72-.44,1.3-1.06,1.73-1.85,.43-.8,.64-1.71,.64-2.73s-.21-1.94-.64-2.75Z"/><path class="cls-2" d="M110.42,40.93c-.37-.36-.55-.81-.55-1.35s.18-.96,.55-1.32,.82-.53,1.37-.53h5.46c.54,0,1,.18,1.37,.55s.55,.82,.55,1.37-.18,.96-.55,1.3c-.37,.35-.82,.52-1.37,.52h-5.46c-.54,0-1-.18-1.37-.53Z"/><path class="cls-2" d="M129.34,29.92c-.29,.41-.44,.85-.44,1.33v1.48h2.86c.5,0,.92,.16,1.26,.49,.33,.32,.5,.74,.5,1.24s-.17,.92-.5,1.24c-.33,.32-.75,.49-1.26,.49h-2.86v11.11c0,.54-.18,1-.53,1.37-.36,.37-.81,.55-1.35,.55s-.99-.18-1.35-.55c-.36-.37-.53-.82-.53-1.37v-11.11h-1.7c-.5,0-.92-.16-1.26-.49-.33-.32-.5-.74-.5-1.24s.17-.92,.5-1.24c.33-.32,.75-.49,1.26-.49h1.7v-1.44c0-1.57,.54-2.85,1.62-3.83,1.08-.98,2.63-1.48,4.66-1.48,.77,0,1.45,.16,2.03,.47,.58,.31,.86,.8,.86,1.44,0,.5-.15,.91-.44,1.22s-.65,.47-1.07,.47c-.11,0-.21-.01-.33-.03-.12-.02-.24-.04-.36-.06-.5-.13-.92-.19-1.26-.19-.71,0-1.21,.2-1.51,.61Zm6.66,.11c-.29-.23-.44-.64-.44-1.22v-.6c0-.59,.16-.99,.47-1.22,.31-.23,.82-.35,1.51-.35,.73,0,1.25,.12,1.54,.35,.29,.23,.44,.64,.44,1.22v.6c0,.61-.15,1.02-.46,1.24-.3,.22-.82,.33-1.55,.33s-1.21-.11-1.51-.35Zm2.89,18.63c-.36,.37-.81,.55-1.35,.55s-1-.18-1.35-.55c-.36-.37-.53-.82-.53-1.37v-12.97c0-.54,.18-1,.53-1.37,.36-.37,.81-.55,1.35-.55s.99,.18,1.35,.55c.36,.37,.53,.82,.53,1.37v12.97c0,.54-.18,1-.53,1.37Z"/></g><circle class="cls-1" cx="32.01" cy="32.13" r="25.05"/><g><path id="path38" class="cls-2" d="M43.42,34.33c-1.38,.17-2.5,.04-2.5,.04v-8.46h1.7c1.12,0,2.21,.47,2.94,1.32,.52,.6,.93,1.44,.93,2.61,0,2.85-1.47,3.97-3.06,4.49m7.27-5.94c-.5-2.62-1.91-4.25-3.35-5.26s-3.28-1.58-5.1-1.58H16.38c-.9,0-1.24,.88-1.25,1.32,0,.06,0,.29,0,.29,0,0-.04,11.44,.04,17.55,.24,3.61,3.86,3.61,3.86,3.61,0,0,11.8-.03,17.46-.07,.27,0,.53-.03,.79-.09,3.22-.81,3.55-3.8,3.52-5.47,6.48,.36,11.04-4.21,9.89-10.29"/><path d="M19.03,45.32c-1.58,0-4.61-.95-4.86-4.54-.08-6.1-.04-17.5-.04-17.62v-.3c0-.92,.72-2.3,2.25-2.3h25.86c2.07,0,4.03,.61,5.68,1.76,2.02,1.41,3.29,3.39,3.76,5.89h0c.58,3.06-.14,5.94-2.03,8.1-1.86,2.12-4.69,3.33-7.87,3.4-.23,2.88-1.71,4.79-4.25,5.42-.32,.08-.67,.12-1.02,.12-5.66,.04-17.46,.07-17.46,.07h0Zm-2.65-22.76c-.2,0-.25,.32-.25,.33v.27c0,.13-.04,11.51,.04,17.54,.17,2.54,2.58,2.62,2.86,2.62h0s11.79-.03,17.45-.07c.2,0,.38-.02,.55-.06,1.88-.47,2.81-1.98,2.76-4.48,0-.28,.11-.55,.31-.74s.47-.3,.75-.28c2.97,.16,5.63-.82,7.28-2.7,1.48-1.68,2.04-3.96,1.57-6.41h0c-.37-1.97-1.36-3.52-2.94-4.62-1.31-.92-2.88-1.4-4.53-1.4H16.38Zm25.56,12.86c-.67,0-1.11-.05-1.14-.05-.5-.06-.89-.49-.89-.99v-8.46c0-.55,.45-1,1-1h1.7c1.44,0,2.79,.61,3.7,1.67,.78,.9,1.17,2,1.17,3.26,0,2.8-1.26,4.63-3.75,5.44-.06,.02-.12,.03-.18,.04-.6,.08-1.15,.1-1.6,.1Zm1.48-1.09h0Zm-1.5-.91c.35,.01,.8-.02,1.29-.07,1.14-.39,2.28-1.13,2.28-3.51,0-.77-.23-1.43-.69-1.95-.53-.62-1.33-.97-2.18-.97h-.7v6.5Z"/></g><path id="path42" class="cls-3" d="M27.8,39.57c.28,.14,.46-.03,.46-.03,0,0,4.12-3.76,5.97-5.92,1.65-1.94,1.76-5.2-1.08-6.41-2.83-1.22-5.16,1.43-5.16,1.43-2.02-2.22-5.08-2.11-6.49-.61-1.41,1.5-.92,4.08,.13,5.52,.99,1.35,5.34,5.23,6,5.88,0,0,.05,.05,.16,.13"/></svg>