<svg xmlns="http://www.w3.org/2000/svg" viewBox="0 0 1706.6667 960" fill="#fff" width="1280" height="720"><path fill="#333" d="M0 0h1706.6666v960H0z"/><path d="M0 0h24v24H0z" fill="none"/><path d="M1048.3816 366.22221h-32.5087v-65.01585c0-89.72194-72.81777-162.53969-162.5397-162.53969-89.72185 0-162.53962 72.81775-162.53962 162.53969v65.01585h-32.50792c-35.75879 0-65.01592 29.25718-65.01592 65.01591v325.0793c0 35.75886 29.25713 65.01592 65.01592 65.01592h390.09594c35.7579 0 65.0153-29.25706 65.0153-65.01592v-325.0793c0-35.75873-29.2574-65.01591-65.0153-65.01591zM853.3332 658.79365c-35.75866 0-65.01579-29.25712-65.01579-65.01579 0-35.75885 29.25713-65.01597 65.01579-65.01597 35.75879 0 65.01591 29.25712 65.01591 65.01597 0 35.75867-29.25712 65.01579-65.01591 65.01579zm100.77464-292.57144H752.55857v-65.01585c0-55.58851 45.18613-100.77464 100.77463-100.77464 55.58856 0 100.77464 45.18613 100.77464 100.77464z"/></svg>
