<svg width="1280" height="720" fill="#fff" version="1.1" viewBox="0 0 1706.7 960" xmlns="http://www.w3.org/2000/svg"><path d="M0 0h1706.6666v960H0z" fill="#333"/><path d="M0 0h24v24H0z" fill="none"/><path d="m1048.4 366.22h-32.509v-65.016c0-89.722-72.818-162.54-162.54-162.54-89.722 0-162.54 72.818-162.54 162.54v65.016h-32.508c-35.759 0-65.016 29.257-65.016 65.016v325.08c0 35.759 29.257 65.016 65.016 65.016h390.1c35.758 0 65.015-29.257 65.015-65.016v-325.08c0-35.759-29.257-65.016-65.015-65.016zm-195.05 292.57c-35.759 0-65.016-29.257-65.016-65.016 0-35.759 29.257-65.016 65.016-65.016 35.759 0 65.016 29.257 65.016 65.016 0 35.759-29.257 65.016-65.016 65.016zm100.77-292.57h-201.55v-65.016c0-55.589 45.186-100.77 100.77-100.77 55.589 0 100.77 45.186 100.77 100.77z"/></svg>
