<svg width="24" height="24" version="1.1" viewBox="0 0 24 24" xmlns="http://www.w3.org/2000/svg"><path d="m2.3 20.28 9.6-9.6-1.4-1.42-0.72 0.71c-0.39 0.39-1.02 0.39-1.41 0l-0.71-0.71c-0.39-0.39-0.39-1.02 0-1.41l5.66-5.66c0.39-0.39 1.02-0.39 1.41 0l0.71 0.71c0.39 0.39 0.39 1.02 0 1.41l-0.71 0.69 1.42 1.43c0.39-0.39 1.02-0.39 1.41 0s0.39 1.03 0 1.42l1.41 1.41 0.71-0.71c0.39-0.39 1.03-0.39 1.42 0l0.7 0.71c0.39 0.39 0.39 1.03 0 1.42l-5.65 5.65c-0.39 0.39-1.03 0.39-1.42 0l-0.7-0.7c-0.4-0.39-0.4-1.03 0-1.42l0.7-0.71-1.41-1.41-9.61 9.61c-0.39 0.39-1.02 0.39-1.41 0s-0.39-1.03 0-1.42" fill="#fff"/></svg>
