<svg xmlns="http://www.w3.org/2000/svg" xmlns:xlink="http://www.w3.org/1999/xlink" id="svg27450" version="1.1" viewBox="0 0 249.1 297.1"><defs><path id="path535" fill="#020204" d="M386.2 285.3c-.4-1-1.1-2-2-2.8-.9-.8-1.9-1.4-3-1.9-2.2-1-4.5-1.3-6.8-1.7l-6.5-1.3c-2.3-.4-4.7-.6-7 0-1.9.4-3.7 1.4-5.2 2.7a15 15 0 00-3.5 5c-1.4 3.1-1.9 6.8-1.6 10.3.2 2.7.9 5.4 2.6 7.4 1.4 1.6 3.4 2.6 5.4 3.2 3.5 1 7.4 1 10.9-.2 5.7-2 10.9-5.7 14.3-10.8 1.2-1.6 2.1-3.4 2.6-5.4a8 8 0 00-.2-4.5"/><path id="path393" fill="url(#linearGradient395)" d="M137.6 281a9 9 0 015-.5c1.8.4 3.4 1.1 4.8 2 2.9 2 5 4.8 7 7.7 4.7 6.4 9.2 13 13.3 19.8 3.3 5.5 6.3 11.2 10.2 16.4 2.4 3.4 5.3 6.6 7.8 10 2.5 3.3 4.7 7 5.8 11 1.4 5.3.9 11.2-1.6 16a21 21 0 01-7.8 8.4 20 20 0 01-11 2.8c-6.1-.2-11.7-3.3-17.4-5.5-11.6-4.6-24.2-6-36-9.7-3.8-1-7.4-2.4-11-3.4-1.7-.4-3.4-.8-5-1.5-1.5-.7-3-1.8-3.8-3.3-.6-1-1-2.4-1-3.7.1-1.4.4-2.7.9-3.9.9-2.5 2.3-4.7 3.3-7.2a30 30 0 001.6-12.6c-.2-4.3-.9-8.6-1.2-12.9 0-1.9-.1-3.8.2-5.7a9.5 9.5 0 012.6-5c1.3-1.3 3-2 4.7-2.4 1.7-.3 3.5-.4 5.3-.3h5.3c1.7-.2 3.5-.6 5-1.4a12 12 0 003.7-3.5c1-1.3 1.8-2.8 2.6-4.3s1.7-3 2.7-4.2c1.1-1.3 2.4-2.4 4-3"/></defs><link id="dark-mode-general-link" href="moz-extension://d2e40c2a-44fd-41b3-83c5-f5f5b51cb0ab/data/content_script/general/dark_6.css" rel="stylesheet" type="text/css"/><defs id="defs27452"><linearGradient id="linearGradient14132-6"><stop id="stop14134-2" offset="0" stop-color="#b98309"/><stop id="stop14136-2" offset="1" stop-color="#382605"/></linearGradient><linearGradient id="linearGradient14168-5"><stop id="stop14170-8" offset="0" stop-color="#ebc40c"/><stop id="stop14172-0" offset="1" stop-color="#ebc40c" stop-opacity="0"/></linearGradient><linearGradient id="linearGradient14830-4"><stop id="stop14832-6" offset="0" stop-color="#7c7c7c"/><stop id="stop14834-5" offset="1" stop-color="#7c7c7c" stop-opacity=".3"/></linearGradient><linearGradient id="linearGradient14518-6"><stop id="stop14540-0" offset="0" stop-color="#110800"/><stop id="stop14542-5" offset=".6" stop-color="#a65a00" stop-opacity=".8"/><stop id="stop14522-4" offset="1" stop-color="#ff921e" stop-opacity="0"/></linearGradient><linearGradient id="linearGradient15103-0"><stop id="stop15105-1" offset="0" stop-color="#000"/><stop id="stop15107-6" offset="1" stop-color="#000" stop-opacity="0"/></linearGradient><linearGradient id="linearGradient14392-8"><stop id="stop14394-3" offset="0" stop-color="#3e2a06"/><stop id="stop14396-0" offset="1" stop-color="#ad780a"/></linearGradient><linearGradient id="linearGradient17009"><stop id="stop17011" offset="0" stop-color="#f3cd0c"/><stop id="stop17013" offset="1" stop-color="#f3cd0c" stop-opacity="0"/></linearGradient><linearGradient id="linearGradient4417-0"><stop id="stop4419-4-4" offset="0" stop-color="#000"/><stop id="stop4421-2-0" offset="1" stop-color="#000" stop-opacity=".2"/></linearGradient><linearGradient id="linearGradient29652-2"><stop id="stop29654-6" offset="0" stop-color="#c8c8c8"/><stop id="stop29656-1" offset="1" stop-color="#797978"/></linearGradient><linearGradient id="linearGradient28469-0"><stop id="stop28479-4" offset="0" stop-color="#d2940a"/><stop id="stop28477-2" offset=".8" stop-color="#d89c08"/><stop id="stop28485-7" offset=".9" stop-color="#b67e07"/><stop id="stop28473-1" offset="1" stop-color="#946106"/></linearGradient><linearGradient id="linearGradient28275-8"><stop id="stop28277-1" offset="0" stop-color="#ad780a"/><stop id="stop28291-9" offset=".1" stop-color="#d89e08"/><stop id="stop28289-6" offset=".3" stop-color="#edb80b"/><stop id="stop28287-6" offset=".4" stop-color="#ebc80d"/><stop id="stop28285-7" offset=".5" stop-color="#f5d838"/><stop id="stop28283-7" offset=".8" stop-color="#f6d811"/><stop id="stop28279-5" offset="1" stop-color="#f5cd31"/></linearGradient><linearGradient id="linearGradient29529-6"><stop id="stop29531-0" offset="0" stop-color="#3a2903"/><stop id="stop29539-7" offset=".6" stop-color="#735208"/><stop id="stop29533-8" offset="1" stop-color="#ac8c04"/></linearGradient><linearGradient id="linearGradient28572-7"><stop id="stop28574-5" offset="0" stop-color="#f5ce2d"/><stop id="stop28576-0" offset="1" stop-color="#d79b08"/></linearGradient><linearGradient id="linearGradient29477-3"><stop id="stop29479-5" offset="0" stop-color="#757574" stop-opacity="0"/><stop id="stop29487-5" offset=".3" stop-color="#757574"/><stop id="stop29485-0" offset=".5" stop-color="#757574"/><stop id="stop29481-3" offset="1" stop-color="#757574" stop-opacity="0"/></linearGradient><linearGradient id="linearGradient29336-6"><stop id="stop29338-1" offset="0" stop-color="#646464" stop-opacity="0"/><stop id="stop29344-7" offset=".3" stop-color="#646464" stop-opacity=".6"/><stop id="stop29354-5" offset=".5" stop-color="#646464"/><stop id="stop29356-3" offset=".7" stop-color="#646464" stop-opacity=".3"/><stop id="stop29340-6" offset="1" stop-color="#646464" stop-opacity="0"/></linearGradient><linearGradient id="linearGradient28976-3"><stop id="stop28978-7" offset="0" stop-color="#747474"/><stop id="stop29259-5" offset=".1" stop-color="#8c8c8c"/><stop id="stop29257-0" offset=".3" stop-color="#a4a4a4"/><stop id="stop28984-4" offset=".5" stop-color="#d4d4d4"/><stop id="stop28986-0" offset=".6" stop-color="#d4d4d4"/><stop id="stop28980-2" offset="1" stop-color="#7c7c7c"/></linearGradient><linearGradient id="linearGradient28935-8"><stop id="stop28937-7" offset="0" stop-color="#949494" stop-opacity=".4"/><stop id="stop28943-3" offset=".5" stop-color="#949494"/><stop id="stop28939-8" offset="1" stop-color="#949494" stop-opacity=".4"/></linearGradient><linearGradient id="linearGradient28853-5"><stop id="stop28855-3" offset="0" stop-color="#020204"/><stop id="stop28865-0" offset=".7" stop-color="#020204"/><stop id="stop28857-9" offset="1" stop-color="#5c5c5c"/></linearGradient><linearGradient id="linearGradient28799-3"><stop id="stop28801-6" offset="0" stop-color="#fefefc"/><stop id="stop28807-7" offset=".8" stop-color="#fefefc"/><stop id="stop28803-0" offset="1" stop-color="#d4d4d4"/></linearGradient><linearGradient id="linearGradient18812" x1="213" x2="219.7" y1="132.8" y2="140.7" gradientTransform="translate(-60 -58.4)" gradientUnits="userSpaceOnUse" xlink:href="#linearGradient28935-8"/><linearGradient id="linearGradient18814" x1="337.3" x2="358.6" y1="120" y2="132.5" gradientTransform="translate(-250)" gradientUnits="userSpaceOnUse" xlink:href="#linearGradient28976-3"/><linearGradient id="linearGradient18816" x1="294.5" x2="308.7" y1="114.6" y2="128" gradientTransform="translate(-300 -1)" gradientUnits="userSpaceOnUse" xlink:href="#linearGradient29336-6"/><linearGradient id="linearGradient18818" x1="253.2" x2="266.6" y1="115.7" y2="128.6" gradientTransform="translate(-300 -1)" gradientUnits="userSpaceOnUse" xlink:href="#linearGradient29336-6"/><linearGradient id="linearGradient18820" x1="164" x2="169.9" y1="132.1" y2="142.5" gradientTransform="translate(-50 -58.4)" gradientUnits="userSpaceOnUse" xlink:href="#linearGradient29477-3"/><linearGradient id="linearGradient18824" x1="256.9" x2="313.3" y1="158.3" y2="157.9" gradientTransform="translate(-210)" gradientUnits="userSpaceOnUse" xlink:href="#linearGradient28275-8"/><linearGradient id="linearGradient18830" x1="243" x2="243.5" y1="157" y2="159.8" gradientUnits="userSpaceOnUse" xlink:href="#linearGradient28572-7"/><linearGradient id="linearGradient18840" x1="338.3" x2="342" y1="323.9" y2="351.5" gradientTransform="translate(-310)" gradientUnits="userSpaceOnUse" xlink:href="#linearGradient15103-0"/><linearGradient id="linearGradient18842" x1="442" x2="490.1" y1="371.5" y2="293.6" gradientTransform="translate(-250 -58.4)" gradientUnits="userSpaceOnUse" xlink:href="#linearGradient14392-8"/><linearGradient id="linearGradient18844" x1="355.2" x2="353.7" y1="289.6" y2="302.3" gradientTransform="translate(-150 -60.4)" gradientUnits="userSpaceOnUse" xlink:href="#linearGradient17009"/><linearGradient id="linearGradient18852" x1="358.5" x2="361.5" y1="279.4" y2="279.2" gradientUnits="userSpaceOnUse" xlink:href="#linearGradient14830-4"/><linearGradient id="linearGradient18854" x1="123.1" x2="170.9" y1="301.5" y2="381.6" gradientTransform="translate(-80 -58.4)" gradientUnits="userSpaceOnUse" xlink:href="#linearGradient14132-6"/><linearGradient id="linearGradient18856" x1="171.6" x2="186.6" y1="324" y2="352.3" gradientTransform="translate(-80.5 -60.1)" gradientUnits="userSpaceOnUse" xlink:href="#linearGradient14168-5"/><linearGradient id="linearGradient395" x1="123.1" x2="170.9" y1="301.5" y2="381.6" gradientUnits="userSpaceOnUse" xlink:href="#linearGradient14132-6"/><linearGradient id="linearGradient423" x1="442" x2="490.1" y1="371.5" y2="293.6" gradientTransform="translate(-250 -58.4)" gradientUnits="userSpaceOnUse" xlink:href="#linearGradient14392-8"/><linearGradient id="linearGradient430" x1="442" x2="490.1" y1="371.5" y2="293.6" gradientTransform="matrix(.87491 0 0 .81149 -158.4 15.2)" gradientUnits="userSpaceOnUse" xlink:href="#linearGradient14392-8"/><linearGradient id="linearGradient437" x1="442" x2="490.1" y1="371.5" y2="293.6" gradientTransform="translate(-500 -116.7)" gradientUnits="userSpaceOnUse" xlink:href="#linearGradient14392-8"/><filter id="filter14148-8" width="1.2" height="1.2" x="-.1" y="-.1"><feGaussianBlur id="feGaussianBlur14150-8" stdDeviation="3.9"/></filter><filter id="filter14140-3"><feGaussianBlur id="feGaussianBlur14142-5" stdDeviation="2.4"/></filter><filter id="filter14176-5"><feGaussianBlur id="feGaussianBlur14178-0" stdDeviation=".4"/></filter><filter id="filter15053-7" width="1.2" height="1.1" x="-.1" y="0"><feGaussianBlur id="feGaussianBlur15055-3" stdDeviation="1.1"/></filter><filter id="filter14812-5" width="1.1" height="1.3" x="-.1" y="-.2"><feGaussianBlur id="feGaussianBlur14814-2" stdDeviation="1"/></filter><filter id="filter14812-0-9" width="1.1" height="1.3" x="-.1" y="-.2"><feGaussianBlur id="feGaussianBlur14814-6-7" stdDeviation="1"/></filter><filter id="filter14897-2" width="1.4" height="1.5" x="-.2" y="-.2"><feGaussianBlur id="feGaussianBlur14899-5" stdDeviation="2.8"/></filter><filter id="filter14951-8" width="1.2" height="1.2" x="-.1" y="-.1"><feGaussianBlur id="feGaussianBlur14953-7" stdDeviation="1.3"/></filter><filter id="filter15211-9" width="1.9" height="1.5" x="-.5" y="-.3"><feGaussianBlur id="feGaussianBlur15213-7" stdDeviation=".9"/></filter><filter id="filter14706-3" width="2.2" height="2" x="-.6" y="-.5"><feGaussianBlur id="feGaussianBlur14708-8" stdDeviation="2.6"/></filter><filter id="filter15115-3"><feGaussianBlur id="feGaussianBlur15117-8" stdDeviation="2.2"/></filter><filter id="filter14416-8" width="1.3" height="1.3" x="-.1" y="-.1"><feGaussianBlur id="feGaussianBlur14418-5" stdDeviation="4.8"/></filter><filter id="filter14432-2" width="1.2" height="1.2" x="-.1" y="-.1"><feGaussianBlur id="feGaussianBlur14434-2" stdDeviation="3.2"/></filter><filter id="filter17044" width="1" height="1.3" x="0" y="-.1"><feGaussianBlur id="feGaussianBlur17046" stdDeviation=".5"/></filter><filter id="filter15185-2" width="1.4" height="1.3" x="-.2" y="-.2"><feGaussianBlur id="feGaussianBlur15187-7" stdDeviation=".9"/></filter><filter id="filter4592-2" width="2.6" height="1.1" x="-.8" y="-.1"><feGaussianBlur id="feGaussianBlur4594-6" stdDeviation="1.4"/></filter><filter id="filter4538-7"><feGaussianBlur id="feGaussianBlur4540-9" stdDeviation=".8"/></filter><filter id="filter4427-5-7"><feGaussianBlur id="feGaussianBlur4429-4-8" stdDeviation="1.1"/></filter><filter id="filter4487-6"><feGaussianBlur id="feGaussianBlur4489-4" stdDeviation=".6"/></filter><filter id="filter14666-9" width="1.2" height="1.1" x="-.1" y="0"><feGaussianBlur id="feGaussianBlur14668-7" stdDeviation="1.4"/></filter><filter id="filter28502-8" width="1.3" height="1.4" x="-.2" y="-.2"><feGaussianBlur id="feGaussianBlur28504-3" stdDeviation=".9"/></filter><filter id="filter15145-6"><feGaussianBlur id="feGaussianBlur15147-1" stdDeviation=".8"/></filter><filter id="filter14963-7" width="1.3" height="1.3" x="-.2" y="-.1"><feGaussianBlur id="feGaussianBlur14965-0" stdDeviation=".8"/></filter><filter id="filter15177-1"><feGaussianBlur id="feGaussianBlur15179-3" stdDeviation=".1"/></filter><filter id="filter15173-0" width="1.2" height="1.2" x="-.1" y="-.1"><feGaussianBlur id="feGaussianBlur15175-4" stdDeviation=".1"/></filter><filter id="filter28584-4" width="1.2" height="1.3" x="-.1" y="-.1"><feGaussianBlur id="feGaussianBlur28586-3" stdDeviation=".3"/></filter><filter id="filter29493-2" width="1.5" height="1.3" x="-.2" y="-.1"><feGaussianBlur id="feGaussianBlur29495-7" stdDeviation=".5"/></filter><filter id="filter29447-1"><feGaussianBlur id="feGaussianBlur29449-4" stdDeviation=".1"/></filter><filter id="filter29350-1"><feGaussianBlur id="feGaussianBlur29352-7" stdDeviation=".1"/></filter><filter id="filter28927-8" width="1.3" height="1.4" x="-.2" y="-.2"><feGaussianBlur id="feGaussianBlur28929-2" stdDeviation=".2"/></filter><filter id="filter28949-8" width="1.4" height="1.4" x="-.2" y="-.2"><feGaussianBlur id="feGaussianBlur28951-1" stdDeviation=".5"/></filter><filter id="filter15133-1" width="1.6" height="1.6" x="-.3" y="-.3"><feGaussianBlur id="feGaussianBlur15135-5" stdDeviation="1.7"/></filter><filter id="filter30475-4"><feGaussianBlur id="feGaussianBlur30477-9" stdDeviation=".9"/></filter><filter id="filter30479-2" width="1.2" height="1.3" x="-.1" y="-.1"><feGaussianBlur id="feGaussianBlur30481-9" stdDeviation="2"/></filter><radialGradient id="radialGradient18806" cx="223.2" cy="137.7" r="14.6" fx="223.2" fy="137.7" gradientTransform="matrix(.81524 -.03431 .02961 1.24799 -208.4 -35.5)" gradientUnits="userSpaceOnUse" xlink:href="#linearGradient28799-3"/><radialGradient id="radialGradient18808" cx="223.2" cy="137.7" r="14.6" fx="223.2" fy="137.7" gradientTransform="matrix(1.08578 -.03431 .03944 1.24799 -233.5 -35.5)" gradientUnits="userSpaceOnUse" xlink:href="#linearGradient28799-3"/><radialGradient id="radialGradient18810" cx="275.5" cy="150.7" r="15.4" fx="275.5" fy="150.7" gradientTransform="matrix(.69785 -.50717 .46034 .6334 -271.1 183)" gradientUnits="userSpaceOnUse" xlink:href="#linearGradient28853-5"/><radialGradient id="radialGradient18822" cx="294.5" cy="193.1" r="31.1" fx="294.5" fy="193.1" gradientTransform="matrix(.93619 -.3864 .27133 .65739 -244.5 146.7)" gradientUnits="userSpaceOnUse" xlink:href="#linearGradient28469-0"/><radialGradient id="radialGradient18826" cx="77.7" cy="147.1" r="3.2" fx="77.7" fy="147.1" gradientTransform="matrix(1 0 0 .58333 60 3)" gradientUnits="userSpaceOnUse" xlink:href="#linearGradient29529-6"/><radialGradient id="radialGradient18828" cx="63.1" cy="147.4" r="1.5" fx="63.1" fy="147.4" gradientTransform="matrix(1 0 0 1.07512 60 -69.5)" gradientUnits="userSpaceOnUse" xlink:href="#linearGradient29529-6"/><radialGradient id="radialGradient18832" cx="268.1" cy="126.5" r="35.5" fx="268.1" fy="126.5" gradientTransform="matrix(.20141 -.03316 .03065 .18616 -3.1 114)" gradientUnits="userSpaceOnUse" xlink:href="#linearGradient29652-2"/><radialGradient id="radialGradient18834" cx="336.2" cy="220.5" r="27.4" fx="336.2" fy="220.5" gradientTransform="matrix(-.69844 0 0 .76336 166.3 50.2)" gradientUnits="userSpaceOnUse" xlink:href="#linearGradient4417-0"/><radialGradient id="radialGradient18836" cx="312.1" cy="236.4" r="27.4" fx="312.1" fy="236.4" gradientTransform="matrix(1 0 0 .76336 -150 -8.1)" gradientUnits="userSpaceOnUse" xlink:href="#linearGradient4417-0"/><radialGradient id="radialGradient18838" cx="275.6" cy="225.1" r="10.8" fx="275.6" fy="225.1" gradientTransform="matrix(1 0 0 1.06923 -150 -73.2)" gradientUnits="userSpaceOnUse" xlink:href="#linearGradient4417-0"/><radialGradient id="radialGradient18846" cx="363.3" cy="303.4" r="16.8" fx="363.3" fy="303.4" gradientTransform="matrix(1.3082 .35053 -.36795 1.37322 -150.5 -298.7)" gradientUnits="userSpaceOnUse" xlink:href="#linearGradient14518-6"/><radialGradient id="radialGradient18848" cx="363.3" cy="303.4" r="16.8" fx="363.3" fy="303.4" gradientTransform="matrix(1.3082 .35053 -.36795 1.37322 -310.5 -240.3)" gradientUnits="userSpaceOnUse" xlink:href="#linearGradient14518-6"/><radialGradient id="radialGradient18850" cx="382.2" cy="246.9" r="20.5" fx="382.2" fy="246.9" gradientTransform="matrix(.36025 .1568 -.07247 .1665 260.6 182)" gradientUnits="userSpaceOnUse" xlink:href="#linearGradient14830-4"/><radialGradient id="radialGradient626" cx="223.2" cy="137.7" r="14.6" fx="223.2" fy="137.7" gradientTransform="matrix(1.08578 -.03431 .03944 1.24799 -15.5 -75.9)" gradientUnits="userSpaceOnUse" xlink:href="#linearGradient28799-3"/><radialGradient id="radialGradient635" cx="223.2" cy="137.7" r="14.6" fx="223.2" fy="137.7" gradientTransform="matrix(.81524 -.03431 .02961 1.24799 9.6 -75.9)" gradientUnits="userSpaceOnUse" xlink:href="#linearGradient28799-3"/><radialGradient id="radialGradient701" cx="294.5" cy="193.1" r="31.1" fx="294.5" fy="193.1" gradientTransform="matrix(.81495 -.25453 .31491 .43302 -75.4 150.7)" gradientUnits="userSpaceOnUse" xlink:href="#linearGradient28469-0"/><clipPath id="clipPath391" clipPathUnits="userSpaceOnUse"><use transform="matrix(1 0 0 1.01828 0 -4)" xlink:href="#path393"/></clipPath><clipPath id="clipPath401" clipPathUnits="userSpaceOnUse"><use id="path403" transform="translate(-240 -1)" xlink:href="#path393"/></clipPath><clipPath id="clipPath419" clipPathUnits="userSpaceOnUse"><path id="path421" fill="url(#linearGradient423)" d="M513.2 336.6a30.7 30.7 0 01-10 7c-6.1 3.2-12.5 6-18.3 9.8A75.6 75.6 0 00474 362c-2.9 2.7-5.6 5.7-8.8 8-3.3 2.4-7 4-11 4.7-4.8.7-9.8-.3-14.3-2.2a17.1 17.1 0 01-8-6.2c-1.8-3-2.2-6.5-2.2-10 0-6 1.1-12 2.2-18a154.2 154.2 0 002.6-42.5c-.2-1.6-.3-3.1 0-4.6.2-1.5.8-3 2-4 1-1 2.5-1.4 4-1.5 1.3 0 2.7.2 4.1.4 3.4.5 6.7.8 10 1.7l6 1.8c3.4 1 7 1.4 10.5 1 3.7-.5 7.4-1.9 11.2-1.8 1.6 0 3.1.3 4.6.8 1.5.5 3 1.2 4.1 2.3a9 9 0 011.9 3c.6 1.7 1 3.5 1.2 5.3 0 1.6 0 3.2.4 4.8.5 2.5 1.8 4.9 3.5 6.9s3.7 3.7 5.7 5.4c2 1.7 4 3.4 6.2 4.8l3 2.1c1 .8 1.8 1.7 2.4 2.7.8 1.5 1 3.3.6 5a14 14 0 01-2.7 4.6z" clip-path="none"/></clipPath><clipPath id="clipPath426" clipPathUnits="userSpaceOnUse"><path id="path428" fill="url(#linearGradient430)" stroke-width=".8" d="M509.4 335.7a27 27 0 01-8.7 5.7c-5.4 2.6-11 4.8-16.1 8-3.4 2-6.6 4.4-9.5 7-2.5 2.3-5 4.6-7.7 6.5-2.9 2-6.2 3.3-9.7 3.8-4.2.6-8.5-.2-12.5-1.8a14.9 14.9 0 01-7-5c-1.5-2.4-1.9-5.3-1.9-8 0-5 1-9.9 2-14.7a116 116 0 002.3-34.5c-.2-1.3-.3-2.5-.1-3.7.2-1.3.7-2.5 1.7-3.3a6 6 0 013.5-1.2c1.2 0 2.5.1 3.7.3 2.9.4 5.8.7 8.6 1.4l5.4 1.5c3 .7 6 1 9.1.7 3.3-.3 6.5-1.5 9.8-1.4 1.4 0 2.7.3 4 .7 1.4.4 2.7 1 3.7 1.8.7.7 1.2 1.6 1.6 2.5.6 1.4.9 2.8 1 4.3.1 1.3.1 2.6.4 3.8.4 2.1 1.6 4 3 5.7 1.5 1.6 3.3 3 5 4.4l5.4 3.9c1 .5 1.8 1 2.7 1.7a8 8 0 012.1 2.2c.7 1.2 1 2.6.5 4-.5 1.3-1.3 2.6-2.3 3.7z" clip-path="none"/></clipPath><clipPath id="clipPath433" clipPathUnits="userSpaceOnUse"><path id="path435" fill="url(#linearGradient437)" d="M263.2 278.3a30.7 30.7 0 01-10 7c-6.1 3.1-12.5 5.9-18.3 9.7a75.6 75.6 0 00-10.9 8.7c-2.9 2.8-5.6 5.7-8.8 8-3.3 2.4-7 4.1-11 4.7-4.8.7-9.8-.2-14.3-2.2a17.1 17.1 0 01-8-6.2c-1.8-3-2.2-6.5-2.2-10 0-6 1.1-12 2.2-18a154.2 154.2 0 002.6-42.5c-.2-1.5-.3-3 0-4.6.2-1.5.8-3 2-4 1-1 2.5-1.4 4-1.4 1.3-.1 2.7.1 4.1.3 3.4.5 6.7.9 10 1.7l6 1.8c3.4 1 7 1.4 10.5 1 3.7-.4 7.4-1.9 11.2-1.8 1.6 0 3.1.4 4.6.8 1.5.5 3 1.2 4.1 2.3a9 9 0 011.9 3c.6 1.8 1 3.5 1.2 5.3 0 1.6 0 3.2.4 4.8.5 2.6 1.8 5 3.5 7s3.7 3.7 5.7 5.3c2 1.7 4 3.4 6.2 4.9l3 2c1 .8 1.8 1.7 2.4 2.8.8 1.4 1 3.2.6 4.9a14 14 0 01-2.7 4.7z" clip-path="none"/></clipPath><clipPath id="clipPath504" clipPathUnits="userSpaceOnUse"><path id="path506" fill="#020204" stroke-width="1" d="M304.8 225.4c6 5 9.8 12.3 11 20 1 6 .3 12.2-1 18.2-1.4 6-3.4 11.7-5.5 17.4-.8 2.3-1.6 4.6-2 7-.2 2.4 0 5 1.1 7 1.3 2.5 3.8 4.2 6.4 5 2.6.8 5.4.8 8 0 2.6-.6 5-1.9 7.2-3.6 5.4-4.2 8.7-11 10-17.8 1.2-6.8.6-14-.6-20.8-1.6-9.4-4.3-18.6-7.7-27.4a96 96 0 00-9.6-18.5c-3.8-5.7-9.2-10.1-13.1-15.7l-4.4-5.8c-3-4.2-2.3-3.5-4-6.2-1.4-2-3.5-2.6-5.6-3.5-2.2-.8-4.7-1.1-7-.5a11 11 0 00-6.6 6.1 16.2 16.2 0 00-1 9.2c.6 4 2.4 7.7 4.5 11.2 2.2 4 4.9 7.8 8.3 10.7 3.6 3 8 5 11.6 8"/></clipPath><clipPath id="clipPath508" clipPathUnits="userSpaceOnUse"><path id="path510" fill="#020204" d="M240.5 195c-7.1 8-14.4 15.9-18.4 24.5-2 4.5-2.9 9.2-4.2 13.9-1.6 5.3-3.7 10.4-6 15.3-2.2 4.6-4.6 9-7 13.6a34 34 0 00-4 10.2 21 21 0 00.5 8.6 40 40 0 003.2 8.2 79.7 79.7 0 0038.9 36.4c2.7 1.3 5.7 2.4 8.7 2.5 1.6 0 3.1-.3 4.5-.9a8 8 0 003.5-2.9c1-1.5 1.4-3.5 1.2-5.4a13 13 0 00-2-5.2c-2.3-4-6.1-6.8-9.8-9.6-7.8-6-15.4-12.5-22.6-19.2-2-2-4.1-4-5.6-6.3-1.4-2.4-2.1-5-2.6-7.7-1.4-7.4-1-15.1 1.4-22.2 1-2.7 2.3-5.3 3.6-8 2.1-4.6 4.2-9.3 7-13.5 3.5-5.2 8.3-9.6 11.2-15.2a54 54 0 004.3-15.4c.8-4 2.2-8 2.9-12.2-1.4 2.7-6 7-8.7 10.5z"/></clipPath><clipPath id="clipPath533" clipPathUnits="userSpaceOnUse"><use xlink:href="#path535"/></clipPath><clipPath id="clipPath538" clipPathUnits="userSpaceOnUse"><use id="path540" xlink:href="#path535"/></clipPath><clipPath id="clipPath622" clipPathUnits="userSpaceOnUse"><path id="path624" fill="url(#radialGradient626)" d="M85.8 122.4c-2.8 1.9-5.2 4.5-6.3 7.7a19 19 0 00.5 12.5c1.4 4.1 3.8 8 7.4 10.5 1.8 1.3 3.8 2.1 6 2.4 2.2.2 4.4-.1 6.4-1.1 2.3-1.3 4.1-3.4 5.2-5.8a26 26 0 00.5-17.7 16.8 16.8 0 00-6.5-8.7c-1.5-1-3.3-1.7-5-2a10.9 10.9 0 00-8.3 2.2"/></clipPath><clipPath id="clipPath631" clipPathUnits="userSpaceOnUse"><path id="path633" fill="url(#radialGradient635)" d="M54.2 122.4c-1.7 0-3.5.9-4.8 2.1a10.8 10.8 0 00-2.7 4.5c-1.2 3.4-1 7-.7 10.6.3 3.2.5 6.5 1.7 9.5.6 1.5 1.5 3 2.6 4 1.1 1.2 2.5 2.1 4.1 2.5 1.5.4 3 .3 4.5-.1a9.7 9.7 0 003.8-2.4c1.6-1.5 2.7-3.6 3.3-5.7a27.4 27.4 0 00-.5-14.7c-.9-2.6-2.3-5.1-4.2-7-1-1-2-1.9-3.2-2.5-1.2-.6-2.5-1-3.9-.8"/></clipPath><clipPath id="clipPath697" clipPathUnits="userSpaceOnUse"><path id="path699" fill="url(#radialGradient701)" stroke-width=".8" d="M214.6 148c-2.5 0-5 .3-7.2 1-4 1-7.6 2.9-10.1 5.3-1.6.9-3 2-4.2 3.1-.7.7-1.3 1.4-1.5 2.2l-.3 2V162.9l.2.1c0 .2.2.3.3.5l1 .7 1.4.5a25 25 0 016 3.8c2.3 2 4.5 4 7.5 5.5 2 1 4.5 1.5 6.9 1.7a31.3 31.3 0 0015-3c3.8-1.8 7-4.6 11.3-5.8l3-.8c.9-.3 1.7-.8 2-1.5.4-.7.3-1.5.3-2.2l.3-2.4c.1-.7 0-1.6-.6-2.3l-.4-.5c0-.3-.2-.5-.5-.8a5 5 0 00-2-1.1l-3.5-.7a67 67 0 01-10.3-2.6l-4.9-1.8c-1.7-.6-3.4-1.2-5.2-1.6-1.4-.3-3-.4-4.5-.5z"/></clipPath><clipPath id="clipPath816" clipPathUnits="userSpaceOnUse"><path id="path818" fill="#fdfdfb" d="M-26.3 154.8c-1 1.3-1.7 2.9-2.1 4.5a24 24 0 00-.7 5c0 3.4.1 6.8-.8 10-1 3.5-3 6.5-5.1 9.4-3.6 5-7.3 10.2-9 16.2-1.1 3.6-1.5 7.4-1.1 11.2-4 5.9-7.5 12.2-10.4 18.7-4.4 10-7.4 20.6-8.5 31.4a80 80 0 005.6 39 64 64 0 0016.7 23.3 54.6 54.6 0 0061.2 7.6 95.1 95.1 0 0020.8-16.4c3.8-3.7 7.6-7.5 10.5-12 5.7-8.5 7.6-19 8.8-29.2 2.2-17.8 2.2-36.7-5.6-52.8a58.3 58.3 0 00-10.6-15.2 83 83 0 00-6.6-22.5c-2.4-5.2-5.3-10-7.5-15.3-1-2.1-1.7-4.3-2.7-6.4a16.2 16.2 0 00-10-9.3c-2.3-.8-4.7-1.1-7.1-1.3-4.8-.2-9.5.4-14.3.2-3.8-.1-7.6-.8-11.4-.6-1.9.2-3.8.5-5.5 1.2-1.8.7-3.4 1.8-4.6 3.3"/></clipPath><clipPath id="clipPath820" clipPathUnits="userSpaceOnUse"><path id="path822" fill="#fdfdfb" stroke-width="1" d="M-47.3 161.4c-1 1.5-1.7 3.2-2.1 5-.4 1.7-.6 3.5-.7 5.4 0 3.6.1 7.3-.8 10.8-1 3.8-3 7-5.1 10.2a63.4 63.4 0 00-9 17.6c-1.1 3.9-1.5 8-1.1 12.1-4 6.4-7.5 13.3-10.4 20.4a119.1 119.1 0 00-8.5 34 93.6 93.6 0 005.6 42.5 69.7 69.7 0 0016.7 25.2A50.8 50.8 0 00-1.5 353 96.8 96.8 0 0019.3 335a77 77 0 0010.5-13 77.6 77.6 0 008.8-31.7c2.2-19.4 2.2-39.8-5.6-57.4-2.7-6-6.3-11.6-10.6-16.4a96 96 0 00-6.6-24.5c-2.4-5.6-5.3-10.9-7.5-16.6-1-2.3-1.7-4.7-2.7-7-1-2.2-2.3-4.4-4-6.2a16 16 0 00-6-3.9c-2.3-.8-4.7-1.1-7.1-1.3-4.8-.2-9.5.4-14.3.2-3.8-.1-7.6-.8-11.4-.6-1.9.1-3.8.5-5.5 1.3-1.8.7-3.4 2-4.6 3.5"/></clipPath></defs><g id="g463" transform="translate(-17 -19.6)"><path id="path28712-2" fill="#020204" d="M140.8 19.6c-7.2-.1-14.4 1.4-20.7 4.8a37.4 37.4 0 00-15.6 16.2 51.5 51.5 0 00-5 22.1c-.3 15.3.4 31.2 1.6 45.7.3 4.5.8 7 .3 11.6-2 9.6-10.3 16-14.8 24.5-5 9.4-7 20-10.8 29.8-3.4 9-8.3 17.5-11.5 26.6a72.2 72.2 0 00-2.9 40A69 69 0 0075 268.3l-2.8 5c-3 5.1-6.6 10-8.3 15.7-.9 2.9-1.2 6-.6 8.8.5 3 2 5.8 4.3 7.6 1.5 1.2 3.4 2 5.3 2.4 1.9.5 3.8.6 5.8.5 7.4-.1 14.5-2.4 21.7-4.2 4.2-1.1 8.5-2.1 12.8-3 15.2-3.1 32.2-1.9 46.4.2 4.8.7 9.5 1.6 14.2 2.8 7.4 1.8 14.8 4 22.4 4.2 2 .1 4 0 6-.4 1.9-.4 3.8-1.2 5.3-2.5 2.3-1.8 3.8-4.6 4.4-7.6.5-2.9.2-6-.7-8.8-1.7-5.7-5.4-10.6-8.4-15.7l-3.5-6.1A100.3 100.3 0 00220 232c4.6-14.3 5.5-29.6 3.5-44.5-2-15-6.6-29.4-12.9-43-7.8-17.2-14.3-23.4-19-38.4-5.2-16.3-1-35.5-4.8-50.3a51.7 51.7 0 00-18.7-27.5 47.7 47.7 0 00-27.3-8.7z"/><path id="path29719-5" fill="#fdfdfb" d="M112.7 105.5c-1 1.3-1.7 2.8-2.1 4.5a24 24 0 00-.7 5c0 3.3.1 6.7-.8 10-1 3.4-3 6.4-5.1 9.3-3.6 5-7.3 10.3-9 16.2-1.1 3.6-1.5 7.5-1.1 11.2-4 6-7.5 12.2-10.4 18.8-4.4 10-7.4 20.5-8.5 31.3a80 80 0 005.6 39.1 64 64 0 0016.7 23.3 54.6 54.6 0 0061.2 7.6 95.1 95.1 0 0020.8-16.4c3.8-3.8 7.6-7.6 10.5-12 5.7-8.6 7.6-19 8.8-29.2 2.2-17.9 2.2-36.7-5.6-52.9a58.3 58.3 0 00-10.6-15.1 83 83 0 00-6.6-22.6c-2.4-5.1-5.3-10-7.5-15.3-1-2.1-1.7-4.3-2.7-6.4a16.2 16.2 0 00-10-9.3c-2.3-.8-4.7-1.1-7.1-1.2-4.8-.3-9.5.4-14.3.2-3.8-.2-7.6-.8-11.4-.6-1.9.1-3.8.4-5.5 1.2-1.8.7-3.4 1.8-4.6 3.3"/></g><g id="g562" transform="translate(-17 -19.6)"><path id="path4400-1" fill="url(#radialGradient18834)" d="M-61 211.6c.9 1.5-.6 6.8 20 3.4 0 0-3.6.5-7.2 1.4a48.5 48.5 0 00-14 7.7c-3.7 3.1-6.4 7.2-9.8 10.7 0 0 5.5-11.5 6.9-15 1.3-3.5-.3-3.3.8-8.4 1-5.1 3.7-10 3.7-10s-2.1 7.2-.4 10.2z" filter="url(#filter4487-6)" opacity=".3" transform="matrix(1.1543 0 0 1 166.3 -58.4)"/><path id="path4400-2-8" fill="url(#radialGradient18836)" d="M172 151.9c-4.8 3.3-7.6 3-13.5 3.6-5.8.6-21.7.4-21.7.4s2.3 0 7.4.9c5.1 1 15.5 1.9 21.3 4 5.9 2.3 8 3 11.5 5.2 5 3.2 8.8 8.2 13.6 11.7 0 0 .3-4.7-1.7-8.1-2-3.5-7.2-9-8.7-14-1.6-5.2-2.3-15.2-2.3-15.2s-1 8-5.9 11.5z" filter="url(#filter4427-5-7)" opacity=".4"/><path id="path4491-9" fill="url(#radialGradient18838)" d="M126.7 144.7a60.3 60.3 0 01-1.3 6.4c-.3.7-.6 1.3-1.2 1.8-.4.4-1 .7-1.6 1-2.2 1-4.6 1.7-7.1 2a82.3 82.3 0 014.8.6c.6.1 1.2.4 1.7.7.5.4 1 1 1.3 1.6a10 10 0 011 3.9 32 32 0 010 5.2 16 16 0 013.8-8.8l1.9-1.7c2-1.4 4.7-2 7.2-1.7-2.6 0-5.2-.7-7.2-2.3-1-.7-2-1.7-2.6-2.9-1-1.7-1.2-3.9-.7-5.8" filter="url(#filter4538-7)" opacity=".2"/><path id="path4542-7" d="M120.5 178.7c-1.2 4.7-2 9.5-2.5 14.3-.7 6.8-.5 13.7-.9 20.5-.3 5.8-1 11.7 0 17.4.5 2.7 1.4 5.4 2.6 7.8l.4-2.8c.4-4.7-.3-9.3-.6-14-.5-8.1.7-16.3 1.1-24.4.4-6.3.3-12.5-.1-18.8" filter="url(#filter4592-2)" opacity=".1"/><path id="path28767-9-3" fill="#7c7c7c" d="M352 200.9c-1.5.3-1.3 4-.3 5.5.8 1.2 3 2.2 3.7 1 1.1-2.1-1.4-7-3.4-6.5z" filter="url(#filter15211-9)" opacity=".3" transform="matrix(-.06992 .957 -.5645 -.11853 236.6 -180.4)"/><path id="path15189-4" fill="#7c7c7c" d="M361.8 209.3c0-1.5-7.6-10-9.8-8.4-2.3 1.5-.5 3.7-.3 5.5.2 1.7-1 6.6.2 7.2 1.2.7 3.4-2.5 5.3-4.3 1.6-1.4 4.5 1.6 4.6 0z" filter="url(#filter14706-3)" opacity=".8" transform="matrix(-.09596 -.957 -.77476 .11853 398.9 493.2)"/><path id="path28767-3" fill="#7c7c7c" d="M278 90.9c-2.3 1.5-1.3 3.5-.3 5.5s-2.1 7.6-2.2 7.8c0 .3 6-2.8 7.7-4.9 2-2.4 6.9 3.3 6.6 2.4 0-1.5-9.6-12.4-11.8-10.8z" filter="url(#filter15133-1)" transform="matrix(1.15221 0 0 1.15221 -163 -72.2)"/><path id="path4596-3" fill="#838384" d="M16.7 165.9c-2.2 2 1 4.9 2.5 8.4 1 2.1 3.5 5.2 6 4.7 2-.4 3-3.1 3-5-.4-3.7-3.5-4.6-5.8-5.8-1.8-1-4.2-3.7-5.7-2.3z" filter="url(#filter15185-2)" transform="translate(160 -57.4)"/><path id="path28461-8-7" fill="#000" fill-opacity=".3" d="M-28.6 172.6a28.3 28.3 0 0013.5 15.3c1.6.7 3.4 1 5 1a12 12 0 004.9-1.7c1.5-.8 2.8-1.9 4.3-2.8 2.4-1.5 5-2.8 7.6-4.2 3.1-1.7 6-3.6 8.7-6 1.2-1 2.3-2.2 3.6-3.1 1.3-1 2.9-1.7 4.5-1.5 1.2 0 2.3.5 3.5.8a5 5 0 001.8.1c.6 0 1.2-.3 1.6-.8.5-.5.7-1.3.7-2a5 5 0 00-.6-2.1c-.7-1.3-1.8-2.5-2.2-3.9-.4-1.2-.4-2.6-.3-3.9 0-1.3 0-2.7-.6-3.8a5 5 0 00-2.1-2.1c-1-.5-2-.7-3-.8-2-.2-4 .2-6 .3-2.6.2-5.2-.2-7.9 0-3.3.2-6.6 1.2-9.9 1.2-3.8 0-7.5-1.3-11.3-.7-1.6.3-3.1.9-4.7 1.4-1.5.5-3 1-4.7 1-1.9-.1-3.6-.8-5.5-.9-.9 0-1.8 0-2.7.3-.9.4-1.6 1-2 1.8-.3.5-.4 1-.5 1.5 0 .5 0 1 .2 1.6l1.1 3c1.4 3.5 1.7 7.4 3 11" clip-path="url(#clipPath816)" filter="url(#filter30479-2)" transform="translate(139 -49.4)"/><path id="path28461-84-3" fill="#000" d="M-54.4 165.5c3.3 2.2 6.3 5 8.8 8 2.3 3 4.3 6.2 7.3 8.3 2.1 1.5 4.7 2.4 7.3 2.6 3 .3 6.1-.2 9-1a32 32 0 007.8-3.4c4.6-2.9 8.5-7 13.6-8.9l3.3-1.2c1-.5 2-1.3 2.6-2.3.5-1 .4-2.2.6-3.3l.8-3.6a6 6 0 00-.3-3.6c-.5-.9-1.2-1.6-2.1-2-1-.5-2-.7-3-.8-2 0-4 .4-6 .6-2.6.3-5.2 0-7.9 0-3.3.1-6.6.9-9.9 1-3.7.2-7.5-.4-11.3-.5-1.6 0-3.3 0-4.9.2-1.6.3-3.1.8-4.5 1.7l-3.6 3.1-2 1.4c-.7.3-1.4.6-2.2.6h-1.3c-.6.2-1.3.6-1.7 1.1-.4.6-.5 1.3-.4 2" clip-path="url(#clipPath820)" filter="url(#filter30475-4)" opacity=".3" transform="matrix(1 0 0 .9211 160 -43.3)"/></g><g id="g481" fill="#020204" transform="translate(-17 -19.6)"><path id="path29705-5-0" d="M45.1 224.4a32 32 0 0111.1 20c1 6 .4 12.2-1 18.2-1.3 6-3.4 11.7-5.5 17.4-.8 2.3-1.7 4.6-2 7-.3 2.4-.1 5 1 7 1.4 2.5 3.8 4.2 6.5 5 2.6.8 5.5.8 8.2 0 2.6-.6 7.1-1.4 9.3-3.1 5.5-4.3 6.8-11.7 8.1-18.3a57 57 0 00-.5-20.8c-1.6-9.4-4.4-18.6-7.9-27.4a95.5 95.5 0 00-9.8-18.5c-3.8-5.7-9.3-10.1-13.3-15.7l-4.5-5.8c-3-4.2-2.3-3.5-4.1-6.2-1.3-2-3.4-2.6-5.7-3.5-2.2-.8-4.7-1.1-7-.5a11 11 0 00-6.8 6.1 16 16 0 00-1 9.2 33 33 0 004.5 11.2c2.4 4 5 7.8 8.6 10.7 3.6 3 8 5 11.8 8" transform="translate(160 -57.4)"/><path id="path14967-1-0" d="M-69.5 194C-76.6 202-84 210-88 218.5c-2 4.5-2.9 9.2-4.2 13.9-1.6 5.3-3.7 10.4-6 15.3-2.2 4.6-4.6 9-7 13.6a34 34 0 00-4 10.2 21 21 0 00.5 8.6 40 40 0 003.2 8.2 79.7 79.7 0 0038.9 36.4c2.7 1.3 5.7 2.4 8.7 2.5 1.6 0 3.1-.3 4.5-.9a8 8 0 003.5-2.9c1-1.5 1.4-3.5 1.2-5.4a13 13 0 00-2-5.2c-2.3-4-6.1-6.8-9.8-9.6-7.8-6-15.4-12.5-22.6-19.2-2-2-4.1-4-5.6-6.3-1.4-2.4-2.1-5-2.6-7.7-1.4-7.4-1-15.1 1.4-22.2 1-2.7 2.3-5.3 3.6-8 2.1-4.6 4.2-9.3 7-13.5 3.5-5.2 8.3-9.6 11.2-15.2a54 54 0 004.3-15.4c.8-4 2.2-8 2.9-12.2-1.4 2.7-6 7-8.7 10.5z" transform="translate(160 -57.4)"/></g><g id="g514" transform="translate(-17 -19.6)"><path id="path29705-9" fill="#838384" d="M290.8 216l1.5 1.4c3.6 3 5.6 6.5 9.3 9.5a38 38 0 0113.5 21c1 6-.3 9.3-1.8 16.4-1.5 7.1-5.8 17.2-8.1 24-1 2.7 1.9 1.6 1.5 4.5-.2 1.4-.2 2.8 0 4.2v-.8a53 53 0 013-11.4c2.4-7 5.2-14 7.2-21.4 2-7.3 1.7-12.5.7-18.8a31.8 31.8 0 00-12.2-20c-4.5-3.4-9.8-5.6-14.6-8.6z" clip-path="url(#clipPath504)" filter="url(#filter14666-9)" transform="matrix(1.01807 0 0 1 -105.3 -58.4)"/><path id="path15007-0" fill="#7c7c7c" d="M232.3 224.3a33 33 0 00-6 7.3c-2.6 4.4-4.2 9.5-6.1 14.3-1.4 3.6-3.1 7.2-3.3 11-.1 2 .2 4 .2 6 .1 2 0 4-1 5.8a7 7 0 01-3.8 3.1c2.1.7 4 2 5.3 3.9 1.2 1.5 1.9 3.2 2.8 4.8.8 1.3 1.8 2.5 3 3.5s2.6 1.6 4.1 1.8c2 .3 4.2-.4 5.8-1.9-2-18-.2-36.4 5.1-53.8.3-1 .7-2.2.8-3.3 0-1.1-.1-2.3-.8-3.3a3.5 3.5 0 00-5-.6c-.4.3-.8.8-1 1.4" clip-path="url(#clipPath508)" filter="url(#filter15053-7)" opacity=".9" transform="translate(-150 -58.4)"/></g><g id="g457" transform="translate(-17 -19.6)"><g id="g444"><path id="path14483-7-4" fill="url(#linearGradient18840)" d="M86 328.1c-.4 1.6-1.1 3-2 4.4-2 3-4.8 5.3-7.7 7.4-5 3.6-10 6.9-14.6 10.9-3 2.7-5.8 5.8-8.4 9-2.2 2.7-4.3 5.6-6.8 8a20.7 20.7 0 01-20.6 5.8c-2.6-.7-5.2-1.9-6.9-4a15 15 0 01-2.3-8.1c-.4-5.2.2-10.4.8-15.6.4-4.3.9-8.7 1-13a134 134 0 00-1.2-23.3c-.2-1.2-.4-2.5-.3-3.8.1-1.4.6-2.7 1.5-3.7a6 6 0 013.1-1.8c1.2-.3 2.3-.3 3.5-.3 2.8-.1 5.5-.3 8.2 0 1.7.1 3.4.4 5 .6 3 .3 5.9.1 8.7-.7 3-1 6-2.7 9.1-3.1a13 13 0 013.8 0 7 7 0 013.5 1.3c.8.6 1.3 1.4 1.7 2.3a15 15 0 011.3 4.3c.2 1.3.2 2.7.6 4 .5 2 1.7 3.8 3.2 5.3a55.5 55.5 0 0010.3 7c.9.3 1.8.7 2.6 1.2s1.6 1.1 2.1 2c.8 1 1 2.5.9 4" filter="url(#filter15115-3)" opacity=".2" transform="matrix(1.02688 0 0 1 157.7 -58.4)"/><path id="path14296-0" fill="url(#linearGradient18842)" d="M263.2 278.3a30.7 30.7 0 01-10 7c-6.1 3.1-12.5 5.9-18.3 9.7a75.6 75.6 0 00-10.9 8.7c-2.9 2.8-5.6 5.7-8.8 8-3.3 2.4-7 4.1-11 4.7-4.8.7-9.8-.2-14.3-2.2a17.1 17.1 0 01-8-6.2c-1.8-3-2.2-6.5-2.2-10 0-6 1.1-12 2.2-18a154.2 154.2 0 002.6-42.5c-.2-1.5-.3-3 0-4.6.2-1.5.8-3 2-4 1-1 2.5-1.4 4-1.4 1.3-.1 2.7.1 4.1.3 3.4.5 6.7.9 10 1.7l6 1.8c3.4 1 7 1.4 10.5 1 3.7-.4 7.4-1.9 11.2-1.8 1.6 0 3.1.4 4.6.8 1.5.5 3 1.2 4.1 2.3a9 9 0 011.9 3c.6 1.8 1 3.5 1.2 5.3 0 1.6 0 3.2.4 4.8.5 2.6 1.8 5 3.5 7s3.7 3.7 5.7 5.3c2 1.7 4 3.4 6.2 4.9l3 2c1 .8 1.8 1.7 2.4 2.8.8 1.4 1 3.2.6 4.9a14 14 0 01-2.7 4.7z" clip-path="none"/><path id="path14296-3-7" fill="#cd8907" d="M512.9 328.7c-.6 1.6-1.5 3-2.6 4.3a27.9 27.9 0 01-9 6.3c-5.7 2.8-11.5 5.3-16.8 8.7a69 69 0 00-10 7.9c-2.6 2.5-5 5.1-8 7.2-3 2.1-6.4 3.6-10 4.2-4.5.6-9-.2-13.1-2-2.9-1.2-5.6-3-7.3-5.6-1.6-2.6-2-5.8-2-8.9 0-5.5 1-10.9 2-16.2a141.5 141.5 0 002.4-38.2c-.2-1.4-.3-2.8 0-4.2a6 6 0 011.8-3.6 6 6 0 013.6-1.3l3.8.3c3 .5 6.1.8 9 1.6l5.6 1.6c3.1.8 6.4 1.2 9.6.9 3.4-.4 6.7-1.7 10.2-1.6 1.4 0 2.8.3 4.2.7 1.4.4 2.7 1 3.8 2a13 13 0 012.8 7.5c0 1.7-.4 3.4-.2 5.1.2 1.4.8 2.7 1.5 3.8.8 1.2 1.7 2.2 2.6 3.3 1.7 2 3.4 4 5.6 5.6 2.4 1.8 5.3 2.8 7.8 4.5.8.5 1.5 1 2 1.8 1 1.2 1.2 2.9.7 4.3" clip-path="url(#clipPath419)" filter="url(#filter14416-8)" transform="translate(-250 -58.4)"/><path id="path14296-3-1-9" fill="#f5c021" d="M508.8 328a15 15 0 01-2.3 3.4c-2.2 2.4-5 4.1-8.1 5.2-5 1.8-10.6 2-15.5 4-3 1.2-5.8 3-8.5 4.8a43.6 43.6 0 01-7 3.8 37.7 37.7 0 01-14.2 2.5 13 13 0 01-5.5-1.4 7.4 7.4 0 01-3-2.9c-.8-1.4-1-3-1-4.6.1-4.3 1.1-8.5 1-12.7 0-3.7-.7-7.4-1-11-.4-7.1 1.2-14.4-.2-21.3-.2-1.1-.5-2.2-.5-3.4 0-.6 0-1.1.3-1.7.2-.5.6-1 1-1.3.4-.3.9-.4 1.3-.5h1.5c1 .1 1.8.5 2.7.7 2.7.8 5.5.7 8.2 1.3 1.6.3 3.3.9 5 1.3 2.7.7 5.7 1 8.5.7 3.1-.3 6.1-1.3 9.2-1.3 1.3 0 2.6.3 3.8.6a8 8 0 013.4 1.7c.7.6 1.1 1.4 1.5 2.3a9 9 0 011 3.8l-.2 2.1.1 2c.2.8.6 1.4 1 2l1.3 1.5c1.3 1.6 2.2 3.3 3.1 5 1 1.7 2 3.4 3.6 4.6 2.1 1.7 4.8 2.4 7.1 3.7a6 6 0 011.8 1.5 3.8 3.8 0 01.6 3.5" clip-path="url(#clipPath426)" filter="url(#filter14432-2)" transform="matrix(1.14297 0 0 1.2323 -319 -135.5)"/><path id="path16493" fill="url(#linearGradient18844)" d="M187.3 230.3c3.3-.9 6 1.6 8.5 3.5 1.5 1.3 3.7 1 5.6 1 3.1-.1 6.2.5 9.3.1 6.2-.5 12.2-2 18.4-2.3 3-.1 6.2-.3 8.8 1.4 1 .7 2.5 3.8 3.6 2.6a8.6 8.6 0 00-6-7c-2.5-.5-5 .2-7.5 0-7.4-.2-14.8-1.6-22.2-1.2-5.2 0-10.4-.2-15.5-.4-2-.4-2.8 1.4-3.9 2.1" clip-path="url(#clipPath433)" filter="url(#filter17044)"/></g><g id="g411"><path id="path4635-1" fill="url(#linearGradient18854)" d="M57.6 222.7a9 9 0 015-.5c1.8.3 3.4 1 4.8 2 2.9 2 5 4.8 7 7.6 4.7 6.4 9.2 13 13.3 19.8 3.3 5.6 6.3 11.3 10.2 16.5 2.4 3.4 5.3 6.5 7.8 9.9 2.5 3.4 4.7 7 5.8 11.1 1.4 5.3.9 11.1-1.6 16a21 21 0 01-7.8 8.3 20 20 0 01-11 2.9c-6.1-.3-11.7-3.3-17.4-5.6-11.6-4.6-24.2-6-36-9.6-3.8-1.1-7.4-2.4-11-3.5-1.7-.4-3.4-.8-5-1.5-1.5-.7-3-1.8-3.8-3.2-.6-1.2-1-2.5-1-3.8.1-1.3.4-2.6.9-3.9.9-2.4 2.3-4.7 3.3-7.1a30 30 0 001.6-12.7c-.2-4.3-.9-8.5-1.2-12.8 0-2-.1-3.9.2-5.8a9.5 9.5 0 012.6-5c1.3-1.2 3-2 4.7-2.3 1.7-.4 3.5-.4 5.3-.4 1.7 0 3.5.2 5.3 0 1.7-.1 3.5-.5 5-1.4a12 12 0 003.7-3.4c1-1.4 1.8-2.9 2.6-4.3.8-1.5 1.7-3 2.7-4.3 1.1-1.3 2.4-2.4 4-3"/><path id="path13596-6" fill="#d99a03" d="M-99.9 282.8c1.5-.6 3.1-.7 4.6-.3 1.6.3 3 1 4.2 2 2.5 2 4.2 4.6 5.9 7.3 4 6.4 7.8 13 11.5 19.6 2.8 5 5.4 10 8.8 14.6l7.2 8.9c2.3 3 4.4 6.3 5.4 10a19 19 0 01-8.7 21.7c-3 1.7-6.6 2.6-10 2.4-5.7-.2-10.8-3-16-5-10.2-3.6-21.1-4-31.5-7-3.7-1-7.3-2.3-11-3.2-1.7-.4-3.4-.8-5-1.4a8 8 0 01-3.9-3.2 6.9 6.9 0 01-.8-3.7c0-1.2.4-2.5.8-3.7 1-2.3 2.3-4.5 3.2-6.8 1.4-3.6 1.6-7.5 1.3-11.4-.2-3.8-.9-7.6-1.1-11.4-.1-1.7-.1-3.4.2-5.1.3-1.7 1-3.3 2.3-4.5a9 9 0 015-2.3c1.8-.3 3.7-.2 5.5 0 1.9.1 3.7.4 5.6.2 1.8 0 3.7-.5 5.3-1.6 1.4-1 2.4-2.3 3.2-3.8.8-1.4 1.4-3 2-4.6.6-1.5 1.2-3.1 2.2-4.5 1-1.4 2.2-2.6 3.8-3.2" clip-path="url(#clipPath401)" filter="url(#filter14148-8)" transform="translate(160 -57.4)"/><path id="path4635-2-4" fill="#f5bd0c" d="M138.8 281.2c1.4-.7 3-.8 4.6-.5 1.5.3 3 1 4.2 2 2.4 2.1 4 5 5.4 7.8 3.3 6.4 6.4 13 10.3 19.1 2.9 4.4 6.2 8.5 9.1 13a54 54 0 018.5 19.4c.8 4.7.8 9.8-1.4 14-1.5 2.9-3.9 5.2-6.7 6.6a17 17 0 01-9.2 1.7c-5-.4-9.4-2.9-14-4.6-8.4-3-17.3-3.8-25.8-6.1-3.6-1-7.1-2.3-10.8-3-1.6-.4-3.2-.6-4.7-1.2a7 7 0 01-3.8-3c-.6-1-.7-2.2-.7-3.4.1-1.1.5-2.3.9-3.3.9-2.2 2.2-4.1 2.9-6.3 1-3.3.6-6.8-.2-10.1-.7-3.3-1.8-6.6-2.2-10a14 14 0 01.2-4.5 8 8 0 012.1-3.9c1.4-1.4 3.4-2 5.3-2.2 2-.2 3.9 0 5.8.3 2 .3 3.9.6 5.8.5 2 0 4-.6 5.5-1.8 1.5-1.2 2.5-3 3-4.8.5-1.9.7-3.8 1-5.7.2-2 .4-3.9 1.2-5.7.7-1.8 2-3.4 3.7-4.3" clip-path="url(#clipPath391)" filter="url(#filter14140-3)" transform="matrix(1 0 0 .98205 -80 -54.4)"/><path id="path4792-8" fill="url(#linearGradient18856)" d="M76.4 237.6c2.6 4.7 4.2 10.1 6.8 14.9 2.4 4.4 5 8.9 7.5 12.9 1 1.8 3.6 4.5 6.1 8.8 2.3 4 4.6 9.3 6 11.1-.8-2-2.4-7.8-4.2-11.9-1.7-3.8-3.7-6-5-8-2.3-4-5-7.7-7.4-11.5-3.4-5.3-6-11.2-9.8-16.3z" filter="url(#filter14176-5)"/></g></g><g id="g526" transform="translate(-17 -19.6)"><path id="path29714-8-2" fill="url(#radialGradient18846)" d="M231.5 237.3c-.6-1.1-1.6-2-2.7-2.4a9.2 9.2 0 00-3.7-.6c-2.5 0-5 .6-7.4.4-2-.2-4-1-6-1.5a13 13 0 00-6.5 0c-2.2.5-4.2 2-5.4 4-1 1.7-1.6 3.7-1.8 5.7-.1 2 0 4.1.3 6.1.1 1.5.3 3 .6 4.4.4 1.4 1 2.8 1.8 4 1.2 1.7 3 3 5 3.7a14 14 0 0010.2-.2 28 28 0 0015.7-18.5c.3-.8.4-1.7.4-2.6 0-.8-.1-1.7-.5-2.5" filter="url(#filter14897-2)" opacity=".3"/><path id="path29714-8-3-0" fill="url(#radialGradient18848)" d="M71.5 295.6c-.6-1-1.6-1.9-2.7-2.4a9.2 9.2 0 00-3.7-.6c-2.5 0-5 .7-7.4.5-2-.2-4-1-6-1.5a13 13 0 00-6.5-.1c-2.2.6-4.2 2-5.4 4-1 1.7-1.6 3.8-1.8 5.8-.1 2 0 4 .3 6 .1 1.5.3 3 .6 4.4.4 1.5 1 2.9 1.8 4 1.2 1.8 3 3 5 3.7a14 14 0 0010.2-.1 28 28 0 0015.7-18.5c.3-.9.4-1.7.4-2.6 0-.9-.1-1.8-.5-2.6" filter="url(#filter14951-8)" opacity=".3" transform="matrix(1 0 0 .72293 160 20.4)"/></g><g id="g545" transform="translate(-17 -19.6)"><path id="path29714-5-4" fill="#020204" d="M76.2 285.3c-.4-1-1.1-2-2-2.8-.9-.8-1.9-1.4-3-1.9-2.2-1-4.5-1.3-6.8-1.7l-6.5-1.3c-2.3-.4-4.7-.6-7 0-1.9.4-3.7 1.4-5.2 2.7a15 15 0 00-3.5 5c-1.4 3.1-1.9 6.8-1.6 10.3.2 2.7.9 5.4 2.6 7.4 1.4 1.6 3.4 2.6 5.4 3.2 3.5 1 7.4 1 10.9-.2 5.7-2 10.9-5.7 14.3-10.8 1.2-1.6 2.1-3.4 2.6-5.4a8 8 0 00-.2-4.5" transform="translate(160 -58.4)"/><path id="path29714-3-9-9" fill="url(#radialGradient18850)" d="M362.2 276.5l-1.6.1a12.4 12.4 0 00-10 13 10.2 10.2 0 018.3-10 18 18 0 015.4.1c1.7.2 3.4.4 5.1.8 2.7.6 5.3 1.5 7.5 3l1.4 1.3c.4.4.7 1 .9 1.6a4 4 0 01-.6 2.7c-.4.8-1 1.5-1.7 2.1l-1.6 1.6c2.5-.5 5.1-1.2 7.2-2.7 1-.6 1.7-1.4 2.3-2.4.5-1 .7-2 .5-3.2-.2-.7-.6-1.3-1-1.9l-1.8-1.4a20 20 0 00-9-3.5 110.8 110.8 0 00-11.3-1.2z" clip-path="url(#clipPath533)" filter="url(#filter14812-5)" transform="translate(-150 -58.4)"/><path id="path29714-3-9-3-8" fill="url(#linearGradient18852)" d="M362.2 276.5l-1.6.1a12.4 12.4 0 00-10 13 10.2 10.2 0 018.3-10 18 18 0 015.4.1c1.7.2 3.4.4 5.1.8 2.7.6 5.3 1.5 7.5 3l1.4 1.3c.4.4.7 1 .9 1.6a4 4 0 01-.6 2.7c-.4.8-1 1.5-1.7 2.1l-1.6 1.6c2.5-.5 5.1-1.2 7.2-2.7 1-.6 1.7-1.4 2.3-2.4.5-1 .7-2 .5-3.2-.2-.7-.6-1.3-1-1.9l-1.8-1.4a20 20 0 00-9-3.5 110.8 110.8 0 00-11.3-1.2z" clip-path="url(#clipPath538)" filter="url(#filter14812-0-9)" transform="translate(-150 -58.4)"/></g><g id="g777" transform="translate(-17 -19.6)"><g id="g669"><g id="g643"><path id="path28795-9-5" fill="url(#radialGradient18806)" d="M-24.8 113.4c-1.7 0-3.5.9-4.8 2.1a10.8 10.8 0 00-2.7 4.5c-1.2 3.4-1 7-.7 10.6.3 3.2.5 6.5 1.7 9.5.6 1.5 1.5 3 2.6 4 1.1 1.2 2.5 2.1 4.1 2.5 1.5.4 3 .3 4.5-.1a9.7 9.7 0 003.8-2.4c1.6-1.5 2.7-3.6 3.3-5.7a27.4 27.4 0 00-.5-14.7c-.9-2.6-2.3-5.1-4.2-7-1-1-2-1.9-3.2-2.5-1.2-.6-2.5-1-3.9-.8" transform="translate(139 -49.4)"/><g id="g605"><path id="path29453-9" fill="#020204" d="M160 137.1c-.4 2.3-.4 4.6.3 6.8.5 1.4 1.4 2.7 2.4 3.8.7.7 1.4 1.3 2.3 1.8.9.4 2 .6 2.9.3.9-.2 1.6-.8 2.2-1.5.6-.7 1-1.5 1.2-2.4.8-2.6.7-5.4-.1-8-.6-1.8-1.5-3.6-3-4.8a6 6 0 00-2.5-1.3c-.9-.2-1.9-.2-2.7.2-1 .4-1.7 1.2-2.2 2.2-.4.9-.7 1.9-.9 3" transform="translate(-50 -58.4)"/><path id="path29465-8" fill="url(#linearGradient18820)" d="M114.7 77.1c.2.7 1 .9 1.5 1.4.4.5.9 1 1.1 1.6.5 1.2-.4 3 .5 3.8.3.2 1 .2 1.2 0 1.1-1 .9-3.2.4-4.7a5.6 5.6 0 00-2.6-3.2c-.6-.3-1.5-.5-2-.1-.3.2-.3.8-.1 1.2z" filter="url(#filter29493-2)"/></g><path id="path29551-9" fill="url(#radialGradient18832)" d="M50.4 129.5c2.7-1.6 6-2 9-1.6 3.2.2 6.2 1.2 9.2 2 2.2.6 4.5 1.1 6.5 2.1 2.1 1 4 2.4 5.2 4.4l.5 1 .7.8c.3.2.7.4 1 .4l.6-.2c.1 0 .3-.2.3-.4l.2-.6c0-.2 0-.4-.2-.6-.7-2.8-2.5-5.1-3.8-7.6-.9-1.5-1.5-3.1-2.3-4.6a29.3 29.3 0 00-12.7-11.9 43.6 43.6 0 00-17-4.2 88 88 0 00-20.4 1.6c-2.9.5-5.8 1.1-8.4 2.5-1.3.8-2.5 1.7-3.4 2.9a8.4 8.4 0 00-1.8 4c-.2 1.4 0 2.8.5 4.1a13 13 0 002.2 3.7c1.8 2.2 4 4 6.2 5.8 2.1 2 4 4 6.5 5.6 1.2.8 2.4 1.4 3.8 1.8a9 9 0 004.2.2c1.5-.3 2.8-1 4-1.9 1.2-.9 2.2-2 3.1-3 2-2.3 3.8-4.8 6.3-6.3" clip-path="url(#clipPath631)" transform="translate(60 -58.4)"/><path id="path28795-9-2-2" fill="url(#linearGradient18818)" d="M-38.4 119.4c2.5 2.3 4.3 5.2 5.6 8.3-.6-3.4-1.4-6.1-3.6-8.3a17 17 0 00-4.7-3.2c-1.5-.7-3.2-1-4.1-1.1h-1.2c.7.2 2 .5 3.6 1.2 1.5.7 3 1.8 4.4 3z" filter="url(#filter29447-1)" transform="translate(160 -57.4)"/></g><g id="g652"><path id="path28795-3" fill="url(#radialGradient18808)" d="M6.8 113.4C4 115.3 1.6 117.9.5 121a19 19 0 00.5 12.5c1.4 4.1 3.8 8 7.4 10.5 1.8 1.3 3.8 2.1 6 2.4 2.2.2 4.4-.1 6.3-1.1 2.4-1.3 4.2-3.4 5.3-5.8a26 26 0 00.5-17.7 16.8 16.8 0 00-6.5-8.7c-1.5-1-3.3-1.7-5-2a10.9 10.9 0 00-8.2 2.2" transform="translate(139 -49.4)"/><g id="g613"><path id="path28879-6" fill="#020204" d="M302.2 130.8c-1 0-2.1.4-3 1-.9.5-1.6 1.3-2.2 2.1a11.3 11.3 0 00-1.8 6c0 1.5 0 3.1.6 4.6a8.8 8.8 0 002.6 3.9c1.3 1 2.8 1.6 4.5 1.7 1.6 0 3.2-.4 4.5-1.3 1-.7 2-1.7 2.5-2.9a11.3 11.3 0 000-10.3c-1-2-2.7-3.6-4.9-4.4a7 7 0 00-2.8-.4" transform="translate(-150 -58.4)"/><path id="path28891-5" fill="#141413" d="M154.7 79.2c-1 .4-2.3.2-2.7 1-.2.5.1 1.4.6 1.6 1 .4 2.7-.4 3-1.4.3-.5 0-1.2-.4-1.4l-.5.2z" filter="url(#filter28927-8)"/><path id="path28887-6" fill="url(#linearGradient18812)" d="M158.6 81.5c1.2-1.2-.8-4.2-2.4-5.5-1-1-4.3-1.9-4.2-.9.1 1 1.6 2.3 2.6 3.3 1.2 1.2 3.5 3.7 4 3.1z" filter="url(#filter28949-8)"/></g><path id="path28972-5" fill="url(#linearGradient18814)" d="M75.3 132.5a22.4 22.4 0 0126.5-2.1c1.8 1.1 3.5 2.6 5.2 4a20 20 0 005.6 3.3 8 8 0 003.5.5c1 0 2.1-.5 3-1 .9-.7 1.6-1.5 2.2-2.4 1.1-1.9 1.5-4 1.3-6.2-.4-4.3-2.8-8-4.8-11.9l-2-3.5c-2.4-3.4-6.1-5.6-10-7-4-1.2-8-1.7-12.2-2.2-1.8-.2-3.6-.5-5.5-.3-2 .3-4 1.1-6.1 1.7l-3 .7c-.9.2-1.8.6-2.6 1.3a6.5 6.5 0 00-2.2 3.7c-.3 1.4-.2 3 0 4.4.4 2.9 1.5 5.7 1.4 8.6 0 2-.7 4-.6 6l.3 1.8" clip-path="url(#clipPath622)" transform="translate(60 -58.4)"/><path id="path28795-92-2" fill="url(#linearGradient18816)" d="M-4.6 113.1c-.5.6-.9 1.3-1.2 2 2.1.5 4.2 1.3 6 2.6 3.5 2.3 6.2 5.8 8.1 9.6.5-.5.9-1 1.2-1.6-1.9-4-4.6-7.6-8.3-10-1.8-1.2-3.7-2.1-5.8-2.6z" filter="url(#filter29350-1)" transform="translate(160 -57.4)"/></g></g><g id="g735"><path id="path28849-2" fill="url(#radialGradient18810)" d="M-16.4 136.9c1.8-2 3-4.4 4.7-6.5.8-1 1.8-2 3-2.6 1.1-.7 2.4-1 3.8-1 1.4.2 2.8 1 4 2 1 1 1.8 2.2 2.4 3.6.6 1.2 1.1 2.6 2 3.7 1 1.2 2.3 2 3.5 3 .6.4 1.1.9 1.6 1.5s.8 1.3 1 2c.1.8 0 1.6-.2 2.3a5 5 0 01-1.3 1.9 7.4 7.4 0 01-4 1.8c-3.1.5-6.2-.4-9.3-.4-3 .1-6.1 1.2-9.2 1.1-1.6 0-3.2-.4-4.4-1.3-.7-.5-1.2-1-1.6-1.7a4.6 4.6 0 01-.3-4.3c.3-.7.8-1.4 1.2-2l3.1-3.1" transform="translate(139 -49.4)"/><g id="g712"><path id="path28461-2" fill="url(#radialGradient18822)" d="M45.8 165l.3.9c.2.4.6.8 1 1l1.4 1c2.3 1.4 4.2 3.4 5.9 5.6 2.3 3 4.3 6.2 7.3 8.3 2.1 1.5 4.7 2.4 7.3 2.6 3 .3 6.1-.2 9-1a32 32 0 007.8-3.4c4.6-2.9 8.5-7 13.6-8.9l3.3-1.2c1-.5 2-1.3 2.6-2.3.5-1 .4-2.2.6-3.3l.8-3.6a6 6 0 00-.3-3.6c-.5-.9-1.2-1.6-2.1-2-1-.5-2-.7-3-.8-2 0-4 .4-6 .6-2.6.3-5.2 0-7.9 0-3.3.1-6.6.9-9.9 1-3.7.2-7.5-.4-11.3-.5-1.6-.1-3.3 0-4.9.2-1.6.3-3.2.8-4.5 1.7-1.3 1-2.4 2.2-3.6 3.2-.6.5-1.2 1-2 1.4a5 5 0 01-2.2.5h-1.3l-.6.5-.5.6-.8 1.5" transform="translate(60 -58.4)"/><path id="path28487-2" fill="#d9b30d" d="M60.6 169.1c-.4 1.6-.2 3.3.6 4.8a6.7 6.7 0 003.7 3c2 .7 4.2.4 6-.6 1.1-.5 2.1-1.3 2.7-2.4.3-.5.6-1 .6-1.7.1-.6 0-1.2-.2-1.7-.2-.7-.6-1.2-1.1-1.6-.5-.5-1.1-.8-1.7-1-1.3-.4-2.6-.4-4-.4-2 .1-4 .4-6 .8" filter="url(#filter28502-8)" transform="translate(60 -58.4)"/><path id="path27476-7-8" fill="#604405" d="M54 156.7l-3.8 2.5c-.7.5-1.4 1-1.7 1.7a4 4 0 00-.3 1.7v1.7l-.2 1.2v.6l.3.5.6.3.8.2c1.2.3 2.2 1 3 1.8l2.7 2.5c2.5 2 5.9 2.9 9.2 3 3.2 0 6.5-.7 9.7-1.4 2.5-.6 5-1.2 7.4-2 3.7-1.4 7.1-3.5 10.1-6 1.4-1.2 2.6-2.5 4.1-3.5 1.4-.8 2.9-1.4 4.2-2.2l.4-.2.3-.3a1 1 0 000-.8c0-.2-.2-.4-.4-.6l-.5-.6a9 9 0 00-5.2-1.8c-2-.1-3.8 0-5.7-.3-1.7-.3-3.3-1-5-1.5a37.3 37.3 0 00-18.4-1c-4 .8-8 2.4-11.5 4.5" filter="url(#filter15145-6)" transform="translate(60 -58.4)"/><path id="path27476-4" fill="url(#linearGradient18824)" d="M53.6 152.2c-1.9 1.3-3.6 2.8-5.1 4.6-.8 1-1.6 2.2-2 3.5-.4 1-.5 2-.7 3 0 .4-.2.8-.1 1.2v.6l.3.5.9.4 1 .1a9 9 0 014 1.7l3.5 2.6c2.7 1.7 6 2.5 9.2 2.6 3.3.1 6.5-.4 9.7-1 2.5-.5 5-1.1 7.4-2a44.5 44.5 0 0014.2-9.5l1.4-1.2c.4-.4 1-.7 1.5-1 1-.2 1.9-.1 2.8 0l2 .3 1-.2 1-.6c.2-.4.4-.9.4-1.3 0-.5-.2-1-.4-1.3a4.5 4.5 0 00-2.1-1.7c-1.2-.5-2.4-.8-3.6-1-3.8-1-7.4-2.3-10.9-4l-5-2.7a30 30 0 00-5.4-2.4c-4.2-1.3-8.8-.9-13 .6a27.8 27.8 0 00-12 8.2" transform="translate(60 -58.4)"/><path id="path28357-7" fill="#f6da4a" d="M83.2 153c-.2-.2-.5-.4-.9-.5h-1a5 5 0 00-2 .9 22.3 22.3 0 00-4.6 4.2 16.2 16.2 0 00-3.6 7.3c-.1.4-.2.9-.1 1.3 0 .5.2 1 .6 1.3.2.3.6.5 1 .5l1.2-.1a23.8 23.8 0 009.6-12.2l.2-1.4c0-.4 0-.9-.4-1.2" filter="url(#filter14963-7)" transform="translate(60 -58.4)"/><g id="g681"><path id="path28396-7" fill="url(#radialGradient18826)" d="M135.3 88.5c.2.8 1.4.6 2 1 .7.3 1.2 1 1.8 1 .7 0 1.7-.2 1.8-.9.1-.8-1.1-1.3-2-1.7-1-.4-2.3-.6-3.3 0-.2.1-.4.4-.3.6z" filter="url(#filter15177-1)" opacity=".8"/><path id="path28398-7" fill="url(#radialGradient18828)" d="M123.8 88.1c-.9-.3-2.3 1.3-1.9 2 .2.3.6.6.9.4.4-.2.7-1 1.1-1.3.3-.2.3-1 0-1z" filter="url(#filter15173-0)" opacity=".8"/></g><path id="path28570-8" fill="url(#linearGradient18830)" d="M245.9 158.3a2.6 2.3 0 01-2.6 2.3 2.6 2.3 0 01-2.6-2.3 2.6 2.3 0 012.6-2.3 2.6 2.3 0 012.6 2.3z" clip-path="url(#clipPath697)" filter="url(#filter28584-4)" transform="matrix(1.09562 0 -.17018 1.51813 -76.2 -140.5)"/></g></g></g></svg>