<svg id="svg1" width="64" height="64" version="1.1" viewBox="0 0 16.933 16.933" xmlns="http://www.w3.org/2000/svg"><g id="g8661" transform="matrix(.057602 0 0 .057602 -6.2797 -37.4)" style="stroke-width:1.0013"><rect id="rect8075" x="189.96" y="741.79" width="140.85" height="138.71" rx="7.5776" ry="7.5776"/><ellipse id="path8585" transform="matrix(1.9175 0 0 1.9175 -391.3 -617.8)" cx="291.09" cy="720.53" rx="12.849" ry="12.996"/><rect id="rect8587" x="335.55" y="745.24" width="28.796" height="75.51" rx="2.3586" ry="2.3586"/><path id="path8589" d="m330.11 819.03h39.675l-12.067 20.9h-14.17z"/><rect id="rect8591" x="208.87" y="653.09" width="103.03" height="79.99" rx="4.0398" ry="4.0398"/><rect id="rect8595" x="311.35" y="680.44" width="9.5987" height="24.957"/><rect id="rect8597" x="220.56" y="878.08" width="17.278" height="40.571"/><rect id="rect8599" x="286.24" y="880.26" width="19.197" height="39.675"/><rect id="rect8601" x="191.69" y="917.18" width="69.439" height="22.26"/><rect id="rect8601-2" x="262.17" y="917.18" width="69.439" height="22.26"/><rect id="rect8621" x="183.81" y="754.64" width="8.5848" height="18.65"/><rect id="rect8621-3" x="330.49" y="753.9" width="8.5848" height="18.65"/><rect id="rect8641" x="241.54" y="730.92" width="37.681" height="15.841"/><rect id="rect8595-8" x="200.47" y="680.44" width="9.5987" height="24.957"/></g></svg>
